{"glyphs":{"0":{"ha":800,"x_min":0,"x_max":0,"o":"m 399 -22 b 758 557 613 -22 758 165 b 399 1133 758 946 613 1133 b 42 557 186 1133 42 946 b 399 -22 42 165 186 -22 z m 163 557 b 364 1100 138 979 235 1100 b 638 557 483 1100 613 979 b 433 11 663 133 564 11 b 163 557 315 11 188 133 z "},"1":{"ha":342,"x_min":0,"x_max":0,"o":"m 138 860 l 138 253 b 79 0 138 139 115 35 l 300 0 b 242 253 264 35 242 139 l 242 1133 b 42 1065 182 1089 115 1065 b 138 860 97 1044 138 976 z "},"2":{"ha":758,"x_min":0,"x_max":0,"o":"m 42 0 l 671 0 l 679 28 l 713 146 b 422 28 681 110 606 28 l 156 28 b 717 878 181 397 717 510 b 411 1133 717 1038 574 1133 b 92 1044 246 1133 190 1044 l 189 922 b 404 1106 203 1031 274 1106 b 610 919 504 1106 610 1036 b 42 0 610 575 42 429 z "},"3":{"ha":815,"x_min":0,"x_max":0,"o":"m 394 -22 b 774 289 600 -22 774 94 b 578 604 774 456 685 543 b 747 883 672 678 747 765 b 442 1133 747 1044 604 1133 b 122 1044 276 1133 221 1044 l 219 922 b 435 1106 233 1031 304 1106 b 640 911 535 1106 640 1036 b 489 647 640 776 569 707 l 451 664 l 401 600 l 338 522 b 593 433 432 519 503 506 b 663 271 636 392 663 340 b 414 6 663 106 538 6 b 154 329 260 6 154 139 l 42 186 b 394 -22 83 54 210 -22 z "},"4":{"ha":747,"x_min":0,"x_max":0,"o":"m 490 554 l 490 361 b 415 356 468 357 443 356 l 125 356 l 349 868 b 515 1111 399 985 458 1086 l 383 1111 l 42 328 l 490 328 l 490 253 b 432 0 490 139 468 35 l 653 0 b 594 253 617 35 594 139 l 594 328 l 664 328 l 672 356 l 706 474 b 594 390 688 453 654 417 l 594 828 b 394 760 535 783 468 760 b 490 554 450 739 490 671 z "},"5":{"ha":815,"x_min":0,"x_max":0,"o":"m 394 -22 b 774 303 600 -22 774 94 b 165 750 774 692 482 731 l 246 1053 l 482 1053 b 772 935 665 1053 740 971 l 739 1053 l 722 1118 l 235 1118 l 103 615 b 663 285 414 586 663 561 b 414 6 663 106 538 6 b 154 329 260 6 154 139 l 42 186 b 394 -22 83 54 210 -22 z "},"6":{"ha":754,"x_min":0,"x_max":0,"o":"m 42 581 b 415 -22 42 285 89 -22 b 713 343 590 -22 713 96 b 360 711 713 593 557 711 b 157 585 264 711 192 669 b 425 1106 160 896 276 1106 b 550 1051 474 1106 517 1086 l 593 1104 b 444 1133 550 1124 500 1133 b 42 581 138 1133 43 856 z m 163 451 b 340 682 161 624 258 682 b 593 343 460 682 569 606 b 406 6 617 85 529 6 b 163 451 232 6 176 254 z "},"7":{"ha":728,"x_min":0,"x_max":0,"o":"m 121 0 l 354 0 b 382 243 329 35 342 126 l 686 1118 l 83 1118 l 75 1090 l 42 972 b 332 1090 74 1008 149 1090 l 561 1090 l 267 243 b 121 0 226 126 175 25 z "},"8":{"ha":807,"x_min":0,"x_max":0,"o":"m 392 624 b 646 310 463 624 621 592 b 426 7 667 78 544 7 b 158 310 332 7 185 78 b 385 624 133 525 249 624 l 385 624 z m 42 310 b 403 -22 42 88 210 -22 b 765 310 596 -22 765 88 b 497 638 765 481 646 600 b 681 879 601 668 681 747 b 392 1133 681 1051 544 1133 b 106 879 239 1133 106 1051 b 290 636 106 746 185 667 b 42 310 171 599 42 490 z m 224 879 b 372 1104 208 1049 285 1104 b 560 879 446 1104 544 1049 b 410 653 575 710 501 653 b 224 879 338 653 239 710 z "},"9":{"ha":754,"x_min":0,"x_max":0,"o":"m 394 400 b 594 517 486 400 557 438 b 322 6 592 215 478 6 b 129 181 232 6 163 72 l 53 82 b 303 -22 108 15 194 -22 b 713 531 606 -22 713 254 b 344 1133 713 826 679 1133 b 42 768 178 1133 42 1015 b 394 400 42 518 197 400 z m 161 768 b 336 1106 138 1026 239 1106 b 594 639 535 1106 583 838 b 414 429 588 483 493 429 b 161 768 294 429 185 506 z "}," ":{"ha":278,"x_min":0,"x_max":0,"o":""},"A":{"ha":847,"x_min":0,"x_max":0,"o":"m 594 0 l 826 0 b 682 235 792 33 728 122 l 363 1113 l 190 1113 b 272 1003 211 1093 242 1054 l 61 417 b 208 -4 -24 185 -8 -4 b 481 476 424 -4 507 179 l 565 243 b 594 0 606 126 631 35 z m 92 419 l 290 972 b 335 878 306 943 321 911 l 468 511 l 383 469 l 257 406 b 385 244 338 400 392 353 b 208 24 367 103 306 24 b 92 419 17 24 7 186 z "},"Á":{"ha":847,"x_min":0,"x_max":0,"o":"m 594 0 l 826 0 b 682 235 792 33 728 122 l 363 1113 l 190 1113 b 272 1003 211 1093 242 1054 l 61 417 b 208 -4 -24 185 -8 -4 b 481 476 424 -4 507 179 l 565 243 b 594 0 606 126 631 35 z m 92 419 l 290 972 b 335 878 306 943 321 911 l 468 511 l 383 469 l 257 406 b 385 244 338 400 392 353 b 208 24 367 103 306 24 b 92 419 17 24 7 186 z m 246 1239 b 260 1151 267 1206 278 1181 l 288 1151 l 350 1239 z "},"Ă":{"ha":847,"x_min":0,"x_max":0,"o":"m 594 0 l 826 0 b 682 235 792 33 728 122 l 363 1113 l 190 1113 b 272 1003 211 1093 242 1054 l 61 417 b 208 -4 -24 185 -8 -4 b 481 476 424 -4 507 179 l 565 243 b 594 0 606 126 631 35 z m 92 419 l 290 972 b 335 878 306 943 321 911 l 468 511 l 383 469 l 257 406 b 385 244 338 400 392 353 b 208 24 367 103 306 24 b 92 419 17 24 7 186 z m 229 1239 b 297 1169 229 1194 261 1169 b 367 1239 335 1169 367 1194 l 339 1239 b 297 1183 339 1204 325 1183 b 257 1239 271 1183 257 1204 z "},"Â":{"ha":847,"x_min":0,"x_max":0,"o":"m 594 0 l 826 0 b 682 235 792 33 728 122 l 363 1113 l 190 1113 b 272 1003 211 1093 242 1054 l 61 417 b 208 -4 -24 185 -8 -4 b 481 476 424 -4 507 179 l 565 243 b 594 0 606 126 631 35 z m 92 419 l 290 972 b 335 878 306 943 321 911 l 468 511 l 383 469 l 257 406 b 385 244 338 400 392 353 b 208 24 367 103 306 24 b 92 419 17 24 7 186 z m 229 1150 l 261 1150 l 299 1213 l 336 1150 l 368 1150 l 315 1239 l 282 1239 z "},"Ä":{"ha":847,"x_min":0,"x_max":0,"o":"m 594 0 l 826 0 b 682 235 792 33 728 122 l 363 1113 l 190 1113 b 272 1003 211 1093 242 1054 l 61 417 b 208 -4 -24 185 -8 -4 b 481 476 424 -4 507 179 l 565 243 b 594 0 606 126 631 35 z m 92 419 l 290 972 b 335 878 306 943 321 911 l 468 511 l 383 469 l 257 406 b 385 244 338 400 392 353 b 208 24 367 103 306 24 b 92 419 17 24 7 186 z m 222 1194 b 257 1160 222 1175 238 1160 b 292 1194 275 1160 292 1175 b 257 1229 292 1214 275 1229 b 222 1194 238 1229 222 1214 z m 375 1194 b 410 1160 375 1175 390 1160 b 444 1194 428 1160 444 1175 b 410 1229 444 1214 428 1229 b 375 1194 390 1229 375 1214 z "},"À":{"ha":847,"x_min":0,"x_max":0,"o":"m 594 0 l 826 0 b 682 235 792 33 728 122 l 363 1113 l 190 1113 b 272 1003 211 1093 242 1054 l 61 417 b 208 -4 -24 185 -8 -4 b 481 476 424 -4 507 179 l 565 243 b 594 0 606 126 631 35 z m 92 419 l 290 972 b 335 878 306 943 321 911 l 468 511 l 383 469 l 257 406 b 385 244 338 400 392 353 b 208 24 367 103 306 24 b 92 419 17 24 7 186 z m 246 1239 l 308 1151 l 336 1151 b 350 1239 318 1181 329 1206 z "},"Ā":{"ha":847,"x_min":0,"x_max":0,"o":"m 594 0 l 826 0 b 682 235 792 33 728 122 l 363 1113 l 190 1113 b 272 1003 211 1093 242 1054 l 61 417 b 208 -4 -24 185 -8 -4 b 481 476 424 -4 507 179 l 565 243 b 594 0 606 126 631 35 z m 92 419 l 290 972 b 335 878 306 943 321 911 l 468 511 l 383 469 l 257 406 b 385 244 338 400 392 353 b 208 24 367 103 306 24 b 92 419 17 24 7 186 z m 161 1183 l 435 1183 l 435 1211 l 161 1211 z "},"Ą":{"ha":847,"x_min":0,"x_max":0,"o":"m 594 0 l 671 0 b 635 -58 650 -11 635 -31 b 763 -137 635 -125 717 -137 l 763 -124 b 682 -62 733 -124 682 -118 b 729 -7 682 -28 694 -7 l 729 0 l 826 0 b 682 235 792 33 728 122 l 363 1113 l 190 1113 b 272 1003 211 1093 242 1054 l 61 417 b 208 -4 -24 185 -8 -4 b 481 476 424 -4 507 179 l 565 243 b 594 0 606 126 631 35 z m 92 419 l 290 972 b 335 878 306 943 321 911 l 468 511 l 383 469 l 257 406 b 385 244 338 400 392 353 b 208 24 367 103 306 24 b 92 419 17 24 7 186 z "},"Å":{"ha":847,"x_min":0,"x_max":0,"o":"m 594 0 l 826 0 b 682 235 792 33 728 122 l 363 1113 l 190 1113 b 272 1003 211 1093 242 1054 l 61 417 b 208 -4 -24 185 -8 -4 b 481 476 424 -4 507 179 l 565 243 b 594 0 606 126 631 35 z m 92 419 l 290 972 b 335 878 306 943 321 911 l 468 511 l 383 469 l 257 406 b 385 244 338 400 392 353 b 208 24 367 103 306 24 b 92 419 17 24 7 186 z m 240 1199 b 297 1140 240 1164 267 1140 b 356 1199 329 1140 356 1164 b 297 1256 356 1232 329 1256 b 240 1199 267 1256 240 1232 z m 264 1199 b 297 1232 264 1218 279 1232 b 332 1199 317 1232 332 1218 b 297 1164 332 1178 317 1164 b 264 1199 279 1164 264 1178 z "},"Ã":{"ha":847,"x_min":0,"x_max":0,"o":"m 594 0 l 826 0 b 682 235 792 33 728 122 l 363 1113 l 190 1113 b 272 1003 211 1093 242 1054 l 61 417 b 208 -4 -24 185 -8 -4 b 481 476 424 -4 507 179 l 565 243 b 594 0 606 126 631 35 z m 92 419 l 290 972 b 335 878 306 943 321 911 l 468 511 l 383 469 l 257 406 b 385 244 338 400 392 353 b 208 24 367 103 306 24 b 92 419 17 24 7 186 z m 128 1153 l 156 1153 b 214 1240 156 1178 156 1240 b 376 1136 293 1240 286 1136 b 468 1244 424 1136 468 1161 l 440 1244 b 375 1150 440 1169 419 1150 b 214 1254 303 1150 304 1254 b 128 1153 178 1254 128 1239 z "},"Æ":{"ha":1203,"x_min":0,"x_max":0,"o":"m 61 417 b 208 -4 -24 185 -8 -4 b 476 515 433 -4 514 196 l 383 469 l 257 406 b 385 244 338 400 392 353 b 208 24 367 103 306 24 b 92 419 17 24 7 186 l 331 1085 l 406 1085 b 519 860 504 1085 519 974 l 519 253 b 461 0 519 139 497 35 l 1133 0 l 1142 28 l 1175 146 b 885 28 1143 110 1068 28 l 742 28 b 624 253 626 28 624 139 l 624 438 b 793 621 624 578 679 621 l 839 621 b 1092 547 953 621 1057 583 l 1092 722 b 839 649 1057 686 953 649 l 793 649 b 624 574 710 649 654 628 l 624 860 b 740 1085 624 974 626 1085 l 894 1085 b 1147 1004 1063 1085 1113 1040 l 1147 1113 l 253 1113 b 224 869 289 1078 265 986 z "},"B":{"ha":788,"x_min":0,"x_max":0,"o":"m 42 0 l 204 0 b 403 -22 261 0 301 -22 b 758 321 603 -22 781 75 b 561 592 744 482 649 558 b 682 818 631 632 682 701 b 347 1133 682 1068 489 1133 b 193 1113 289 1133 258 1113 l 42 1113 b 100 860 78 1078 100 974 l 100 253 b 42 0 100 139 78 35 z m 204 253 l 204 263 b 394 585 204 503 283 585 b 650 321 493 585 626 535 b 421 6 682 38 492 6 b 204 253 338 6 204 60 z m 204 451 l 204 861 b 342 1106 204 974 213 1106 b 571 860 403 1106 539 1099 b 497 611 588 729 549 651 b 424 619 467 618 440 619 b 204 451 275 619 217 517 z "},"C":{"ha":864,"x_min":0,"x_max":0,"o":"m 478 -22 b 836 178 618 -22 751 43 l 814 194 b 526 43 721 71 626 43 b 149 557 374 43 183 133 b 429 1096 114 979 276 1096 b 636 904 508 1096 603 1033 l 743 1040 b 478 1133 667 1103 574 1133 b 28 557 240 1133 28 946 b 478 -22 28 165 240 -22 z "},"Ć":{"ha":864,"x_min":0,"x_max":0,"o":"m 478 -22 b 836 178 618 -22 751 43 l 814 194 b 526 43 721 71 626 43 b 149 557 374 43 183 133 b 429 1096 114 979 276 1096 b 636 904 508 1096 603 1033 l 743 1040 b 478 1133 667 1103 574 1133 b 28 557 240 1133 28 946 b 478 -22 28 165 240 -22 z m 379 1239 b 393 1151 400 1206 411 1181 l 421 1151 l 483 1239 z "},"Č":{"ha":864,"x_min":0,"x_max":0,"o":"m 478 -22 b 836 178 618 -22 751 43 l 814 194 b 526 43 721 71 626 43 b 149 557 374 43 183 133 b 429 1096 114 979 276 1096 b 636 904 508 1096 603 1033 l 743 1040 b 478 1133 667 1103 574 1133 b 28 557 240 1133 28 946 b 478 -22 28 165 240 -22 z m 363 1239 l 415 1150 l 449 1150 l 501 1239 l 469 1239 l 432 1176 l 394 1239 z "},"Ç":{"ha":864,"x_min":0,"x_max":0,"o":"m 478 -22 b 836 178 618 -22 751 43 l 814 194 b 526 43 721 71 626 43 b 149 557 374 43 183 133 b 429 1096 114 979 276 1096 b 636 904 508 1096 603 1033 l 743 1040 b 478 1133 667 1103 574 1133 b 28 557 240 1133 28 946 b 478 -22 28 165 240 -22 z m 368 -182 b 496 -121 414 -182 496 -169 b 396 -89 496 -79 433 -76 l 418 -22 l 404 -22 l 375 -110 l 389 -110 b 449 -135 414 -100 449 -110 b 368 -168 449 -164 397 -168 z "},"Ċ":{"ha":864,"x_min":0,"x_max":0,"o":"m 478 -22 b 836 178 618 -22 751 43 l 814 194 b 526 43 721 71 626 43 b 149 557 374 43 183 133 b 429 1096 114 979 276 1096 b 636 904 508 1096 603 1033 l 743 1040 b 478 1133 667 1103 574 1133 b 28 557 240 1133 28 946 b 478 -22 28 165 240 -22 z m 397 1196 b 432 1161 397 1176 413 1161 b 467 1196 450 1161 467 1176 b 432 1231 467 1215 450 1231 b 397 1196 413 1231 397 1215 z "},"D":{"ha":828,"x_min":0,"x_max":0,"o":"m 42 0 l 204 0 b 378 -22 261 0 279 -22 b 800 557 585 -22 800 165 b 347 1133 800 946 585 1133 b 193 1113 286 1133 258 1113 l 42 1113 b 100 860 78 1078 100 974 l 100 253 b 42 0 100 139 78 35 z m 204 253 l 204 861 b 342 1106 204 974 213 1106 b 679 557 453 1106 644 979 b 396 8 714 133 550 8 b 204 253 315 8 204 60 z "},"Ð":{"ha":828,"x_min":0,"x_max":0,"o":"m 42 0 l 204 0 b 378 -22 261 0 279 -22 b 800 557 585 -22 800 165 b 347 1133 800 946 585 1133 b 193 1113 286 1133 258 1113 l 42 1113 b 100 860 78 1078 100 974 l 100 615 l 64 615 l 64 588 l 100 588 l 100 253 b 42 0 100 139 78 35 z m 204 253 l 204 588 l 338 588 l 338 615 l 204 615 l 204 861 b 342 1106 204 974 213 1106 b 679 557 453 1106 644 979 b 396 8 714 133 550 8 b 204 253 315 8 204 60 z "},"Ď":{"ha":828,"x_min":0,"x_max":0,"o":"m 42 0 l 204 0 b 378 -22 261 0 279 -22 b 800 557 585 -22 800 165 b 347 1133 800 946 585 1133 b 193 1113 286 1133 258 1113 l 42 1113 b 100 860 78 1078 100 974 l 100 253 b 42 0 100 139 78 35 z m 204 253 l 204 861 b 342 1106 204 974 213 1106 b 679 557 453 1106 644 979 b 396 8 714 133 550 8 b 204 253 315 8 204 60 z m 344 1239 l 397 1150 l 431 1150 l 483 1239 l 451 1239 l 414 1176 l 376 1239 z "},"Đ":{"ha":828,"x_min":0,"x_max":0,"o":"m 42 0 l 204 0 b 378 -22 261 0 279 -22 b 800 557 585 -22 800 165 b 347 1133 800 946 585 1133 b 193 1113 286 1133 258 1113 l 42 1113 b 100 860 78 1078 100 974 l 100 615 l 64 615 l 64 588 l 100 588 l 100 253 b 42 0 100 139 78 35 z m 204 253 l 204 588 l 338 588 l 338 615 l 204 615 l 204 861 b 342 1106 204 974 213 1106 b 679 557 453 1106 644 979 b 396 8 714 133 550 8 b 204 253 315 8 204 60 z "},"E":{"ha":783,"x_min":0,"x_max":0,"o":"m 42 0 l 714 0 l 722 28 l 756 146 b 465 28 724 110 649 28 l 322 28 b 204 253 207 28 204 139 l 204 438 b 374 621 204 578 260 621 l 419 621 b 672 547 533 621 638 583 l 672 722 b 419 649 638 686 533 649 l 374 649 b 204 574 290 649 235 628 l 204 860 b 321 1085 204 974 207 1085 l 475 1085 b 728 1004 643 1085 693 1040 l 728 1113 l 42 1113 b 100 860 78 1078 100 974 l 100 253 b 42 0 100 139 78 35 z "},"É":{"ha":783,"x_min":0,"x_max":0,"o":"m 42 0 l 714 0 l 722 28 l 756 146 b 465 28 724 110 649 28 l 322 28 b 204 253 207 28 204 139 l 204 438 b 374 621 204 578 260 621 l 419 621 b 672 547 533 621 638 583 l 672 722 b 419 649 638 686 533 649 l 374 649 b 204 574 290 649 235 628 l 204 860 b 321 1085 204 974 207 1085 l 475 1085 b 728 1004 643 1085 693 1040 l 728 1113 l 42 1113 b 100 860 78 1078 100 974 l 100 253 b 42 0 100 139 78 35 z m 339 1239 b 353 1151 360 1206 371 1181 l 381 1151 l 443 1239 z "},"Ě":{"ha":783,"x_min":0,"x_max":0,"o":"m 42 0 l 714 0 l 722 28 l 756 146 b 465 28 724 110 649 28 l 322 28 b 204 253 207 28 204 139 l 204 438 b 374 621 204 578 260 621 l 419 621 b 672 547 533 621 638 583 l 672 722 b 419 649 638 686 533 649 l 374 649 b 204 574 290 649 235 628 l 204 860 b 321 1085 204 974 207 1085 l 475 1085 b 728 1004 643 1085 693 1040 l 728 1113 l 42 1113 b 100 860 78 1078 100 974 l 100 253 b 42 0 100 139 78 35 z m 322 1239 l 375 1150 l 408 1150 l 461 1239 l 429 1239 l 392 1176 l 354 1239 z "},"Ê":{"ha":783,"x_min":0,"x_max":0,"o":"m 42 0 l 714 0 l 722 28 l 756 146 b 465 28 724 110 649 28 l 322 28 b 204 253 207 28 204 139 l 204 438 b 374 621 204 578 260 621 l 419 621 b 672 547 533 621 638 583 l 672 722 b 419 649 638 686 533 649 l 374 649 b 204 574 290 649 235 628 l 204 860 b 321 1085 204 974 207 1085 l 475 1085 b 728 1004 643 1085 693 1040 l 728 1113 l 42 1113 b 100 860 78 1078 100 974 l 100 253 b 42 0 100 139 78 35 z m 322 1150 l 354 1150 l 392 1213 l 429 1150 l 461 1150 l 408 1239 l 375 1239 z "},"Ë":{"ha":783,"x_min":0,"x_max":0,"o":"m 42 0 l 714 0 l 722 28 l 756 146 b 465 28 724 110 649 28 l 322 28 b 204 253 207 28 204 139 l 204 438 b 374 621 204 578 260 621 l 419 621 b 672 547 533 621 638 583 l 672 722 b 419 649 638 686 533 649 l 374 649 b 204 574 290 649 235 628 l 204 860 b 321 1085 204 974 207 1085 l 475 1085 b 728 1004 643 1085 693 1040 l 728 1113 l 42 1113 b 100 860 78 1078 100 974 l 100 253 b 42 0 100 139 78 35 z m 315 1194 b 350 1160 315 1175 331 1160 b 385 1194 368 1160 385 1175 b 350 1229 385 1214 368 1229 b 315 1194 331 1229 315 1214 z m 468 1194 b 503 1160 468 1175 483 1160 b 538 1194 521 1160 538 1175 b 503 1229 538 1214 521 1229 b 468 1194 483 1229 468 1214 z "},"Ė":{"ha":783,"x_min":0,"x_max":0,"o":"m 42 0 l 714 0 l 722 28 l 756 146 b 465 28 724 110 649 28 l 322 28 b 204 253 207 28 204 139 l 204 438 b 374 621 204 578 260 621 l 419 621 b 672 547 533 621 638 583 l 672 722 b 419 649 638 686 533 649 l 374 649 b 204 574 290 649 235 628 l 204 860 b 321 1085 204 974 207 1085 l 475 1085 b 728 1004 643 1085 693 1040 l 728 1113 l 42 1113 b 100 860 78 1078 100 974 l 100 253 b 42 0 100 139 78 35 z m 357 1196 b 392 1161 357 1176 372 1161 b 426 1196 410 1161 426 1176 b 392 1231 426 1215 410 1231 b 357 1196 372 1231 357 1215 z "},"È":{"ha":783,"x_min":0,"x_max":0,"o":"m 42 0 l 714 0 l 722 28 l 756 146 b 465 28 724 110 649 28 l 322 28 b 204 253 207 28 204 139 l 204 438 b 374 621 204 578 260 621 l 419 621 b 672 547 533 621 638 583 l 672 722 b 419 649 638 686 533 649 l 374 649 b 204 574 290 649 235 628 l 204 860 b 321 1085 204 974 207 1085 l 475 1085 b 728 1004 643 1085 693 1040 l 728 1113 l 42 1113 b 100 860 78 1078 100 974 l 100 253 b 42 0 100 139 78 35 z m 339 1239 l 401 1151 l 429 1151 b 443 1239 411 1181 422 1206 z "},"Ē":{"ha":783,"x_min":0,"x_max":0,"o":"m 42 0 l 714 0 l 722 28 l 756 146 b 465 28 724 110 649 28 l 322 28 b 204 253 207 28 204 139 l 204 438 b 374 621 204 578 260 621 l 419 621 b 672 547 533 621 638 583 l 672 722 b 419 649 638 686 533 649 l 374 649 b 204 574 290 649 235 628 l 204 860 b 321 1085 204 974 207 1085 l 475 1085 b 728 1004 643 1085 693 1040 l 728 1113 l 42 1113 b 100 860 78 1078 100 974 l 100 253 b 42 0 100 139 78 35 z m 254 1183 l 528 1183 l 528 1211 l 254 1211 z "},"Ę":{"ha":783,"x_min":0,"x_max":0,"o":"m 42 0 l 614 0 b 578 -58 593 -11 578 -31 b 706 -137 578 -125 660 -137 l 706 -124 b 625 -62 676 -124 625 -118 b 672 -7 625 -28 638 -7 l 672 0 l 714 0 l 722 28 l 756 146 b 465 28 724 110 649 28 l 322 28 b 204 253 207 28 204 139 l 204 438 b 374 621 204 578 260 621 l 419 621 b 672 547 533 621 638 583 l 672 722 b 419 649 638 686 533 649 l 374 649 b 204 574 290 649 235 628 l 204 860 b 321 1085 204 974 207 1085 l 475 1085 b 728 1004 643 1085 693 1040 l 728 1113 l 42 1113 b 100 860 78 1078 100 974 l 100 253 b 42 0 100 139 78 35 z "},"Ẽ":{"ha":783,"x_min":0,"x_max":0,"o":"m 42 0 l 714 0 l 722 28 l 756 146 b 465 28 724 110 649 28 l 322 28 b 204 253 207 28 204 139 l 204 438 b 374 621 204 578 260 621 l 419 621 b 672 547 533 621 638 583 l 672 722 b 419 649 638 686 533 649 l 374 649 b 204 574 290 649 235 628 l 204 860 b 321 1085 204 974 207 1085 l 475 1085 b 728 1004 643 1085 693 1040 l 728 1113 l 42 1113 b 100 860 78 1078 100 974 l 100 253 b 42 0 100 139 78 35 z m 221 1153 l 249 1153 b 307 1240 249 1178 249 1240 b 469 1136 386 1240 379 1136 b 561 1244 517 1136 561 1161 l 533 1244 b 468 1150 533 1169 513 1150 b 307 1254 396 1150 397 1254 b 221 1153 271 1254 221 1239 z "},"F":{"ha":756,"x_min":0,"x_max":0,"o":"m 42 0 l 263 0 b 204 253 226 35 204 139 l 204 438 b 374 621 204 578 260 621 l 379 621 b 632 547 493 621 597 583 l 632 722 b 379 649 597 686 493 649 l 364 649 b 204 574 286 647 233 625 l 204 860 b 321 1085 204 974 207 1085 l 475 1085 b 728 1004 643 1085 693 1040 l 728 1113 l 42 1113 b 100 860 78 1078 100 974 l 100 253 b 42 0 100 139 78 35 z "},"G":{"ha":863,"x_min":0,"x_max":0,"o":"m 493 -22 b 821 269 656 -22 815 31 l 821 594 l 544 594 b 714 342 658 536 714 456 l 714 283 b 526 7 714 54 633 7 b 149 557 374 7 183 133 b 429 1096 114 979 276 1096 b 690 842 531 1096 668 1028 l 801 982 b 478 1133 717 1083 600 1133 b 28 557 240 1133 28 946 b 493 -22 28 165 240 -22 z "},"Ğ":{"ha":863,"x_min":0,"x_max":0,"o":"m 493 -22 b 821 269 656 -22 815 31 l 821 594 l 544 594 b 714 342 658 536 714 456 l 714 283 b 526 7 714 54 633 7 b 149 557 374 7 183 133 b 429 1096 114 979 276 1096 b 690 842 531 1096 668 1028 l 801 982 b 478 1133 717 1083 600 1133 b 28 557 240 1133 28 946 b 493 -22 28 165 240 -22 z m 363 1239 b 431 1169 363 1194 394 1169 b 500 1239 468 1169 500 1194 l 472 1239 b 431 1183 472 1204 458 1183 b 390 1239 404 1183 390 1204 z "},"Ģ":{"ha":863,"x_min":0,"x_max":0,"o":"m 493 -22 b 821 269 656 -22 815 31 l 821 594 l 544 594 b 714 342 658 536 714 456 l 714 283 b 526 7 714 54 633 7 b 149 557 374 7 183 133 b 429 1096 114 979 276 1096 b 690 842 531 1096 668 1028 l 801 982 b 478 1133 717 1083 600 1133 b 28 557 240 1133 28 946 b 396 -12 28 217 188 31 b 363 -154 396 -71 393 -96 l 390 -154 l 486 -22 z "},"Ġ":{"ha":863,"x_min":0,"x_max":0,"o":"m 493 -22 b 821 269 656 -22 815 31 l 821 594 l 544 594 b 714 342 658 536 714 456 l 714 283 b 526 7 714 54 633 7 b 149 557 374 7 183 133 b 429 1096 114 979 276 1096 b 690 842 531 1096 668 1028 l 801 982 b 478 1133 717 1083 600 1133 b 28 557 240 1133 28 946 b 493 -22 28 165 240 -22 z m 397 1196 b 432 1161 397 1176 413 1161 b 467 1196 450 1161 467 1176 b 432 1231 467 1215 450 1231 b 397 1196 413 1231 397 1215 z "},"H":{"ha":897,"x_min":0,"x_max":0,"o":"m 42 0 l 263 0 b 204 253 226 35 204 139 l 204 313 b 386 494 204 453 260 492 b 693 556 526 497 626 511 l 693 253 b 635 0 693 139 671 35 l 856 0 b 797 253 819 35 797 139 l 797 860 b 856 1113 797 974 819 1078 l 635 1113 b 693 860 671 1078 693 974 l 693 836 b 381 522 693 622 651 528 b 204 446 293 521 235 499 l 204 860 b 263 1113 204 974 226 1078 l 42 1113 b 100 860 78 1078 100 974 l 100 253 b 42 0 100 139 78 35 z "},"I":{"ha":304,"x_min":0,"x_max":0,"o":"m 42 0 l 263 0 b 204 253 226 35 204 139 l 204 860 b 263 1113 204 974 226 1078 l 42 1113 b 100 860 78 1078 100 974 l 100 253 b 42 0 100 139 78 35 z "},"Ĳ":{"ha":654,"x_min":0,"x_max":0,"o":"m 42 0 l 263 0 b 204 253 226 35 204 139 l 204 860 b 263 1113 204 974 226 1078 l 42 1113 b 100 860 78 1078 100 974 l 100 253 b 42 0 100 139 78 35 z m 332 -21 b 568 426 565 -21 568 193 l 568 431 l 568 435 l 568 860 b 626 1113 568 974 590 1078 l 406 1113 b 464 860 442 1078 464 974 l 464 435 b 332 7 464 239 464 7 z "},"Í":{"ha":304,"x_min":0,"x_max":0,"o":"m 42 0 l 263 0 b 204 253 226 35 204 139 l 204 860 b 263 1113 204 974 226 1078 l 42 1113 b 100 860 78 1078 100 974 l 100 253 b 42 0 100 139 78 35 z m 100 1239 b 114 1151 121 1206 132 1181 l 142 1151 l 204 1239 z "},"Î":{"ha":304,"x_min":0,"x_max":0,"o":"m 42 0 l 263 0 b 204 253 226 35 204 139 l 204 860 b 263 1113 204 974 226 1078 l 42 1113 b 100 860 78 1078 100 974 l 100 253 b 42 0 100 139 78 35 z m 83 1150 l 115 1150 l 153 1213 l 190 1150 l 222 1150 l 169 1239 l 136 1239 z "},"Ï":{"ha":304,"x_min":0,"x_max":0,"o":"m 42 0 l 263 0 b 204 253 226 35 204 139 l 204 860 b 263 1113 204 974 226 1078 l 42 1113 b 100 860 78 1078 100 974 l 100 253 b 42 0 100 139 78 35 z m 76 1194 b 111 1160 76 1175 92 1160 b 146 1194 129 1160 146 1175 b 111 1229 146 1214 129 1229 b 76 1194 92 1229 76 1214 z m 229 1194 b 264 1160 229 1175 244 1160 b 299 1194 282 1160 299 1175 b 264 1229 299 1214 282 1229 b 229 1194 244 1229 229 1214 z "},"İ":{"ha":304,"x_min":0,"x_max":0,"o":"m 42 0 l 263 0 b 204 253 226 35 204 139 l 204 860 b 263 1113 204 974 226 1078 l 42 1113 b 100 860 78 1078 100 974 l 100 253 b 42 0 100 139 78 35 z m 118 1196 b 153 1161 118 1176 133 1161 b 188 1196 171 1161 188 1176 b 153 1231 188 1215 171 1231 b 118 1196 133 1231 118 1215 z "},"Ì":{"ha":304,"x_min":0,"x_max":0,"o":"m 42 0 l 263 0 b 204 253 226 35 204 139 l 204 860 b 263 1113 204 974 226 1078 l 42 1113 b 100 860 78 1078 100 974 l 100 253 b 42 0 100 139 78 35 z m 100 1239 l 163 1151 l 190 1151 b 204 1239 172 1181 183 1206 z "},"Ī":{"ha":304,"x_min":0,"x_max":0,"o":"m 42 0 l 263 0 b 204 253 226 35 204 139 l 204 860 b 263 1113 204 974 226 1078 l 42 1113 b 100 860 78 1078 100 974 l 100 253 b 42 0 100 139 78 35 z m 15 1183 l 289 1183 l 289 1211 l 15 1211 z "},"Į":{"ha":304,"x_min":0,"x_max":0,"o":"m 42 0 l 126 0 b 90 -58 106 -11 90 -31 b 218 -137 90 -125 172 -137 l 218 -124 b 138 -62 189 -124 138 -118 b 185 -7 138 -28 150 -7 l 185 0 l 263 0 b 204 253 226 35 204 139 l 204 860 b 263 1113 204 974 226 1078 l 42 1113 b 100 860 78 1078 100 974 l 100 253 b 42 0 100 139 78 35 z "},"Ĩ":{"ha":304,"x_min":0,"x_max":0,"o":"m 42 0 l 263 0 b 204 253 226 35 204 139 l 204 860 b 263 1113 204 974 226 1078 l 42 1113 b 100 860 78 1078 100 974 l 100 253 b 42 0 100 139 78 35 z m -18 1153 l 10 1153 b 68 1240 10 1178 10 1240 b 231 1136 147 1240 140 1136 b 322 1244 278 1136 322 1161 l 294 1244 b 229 1150 294 1169 274 1150 b 68 1254 157 1150 158 1254 b -18 1153 32 1254 -18 1239 z "},"J":{"ha":350,"x_min":0,"x_max":0,"o":"m 160 860 l 160 435 b 28 7 160 239 160 7 l 28 -21 b 264 426 261 -21 264 193 l 264 431 l 264 435 l 264 860 b 322 1113 264 974 286 1078 l 101 1113 b 160 860 138 1078 160 974 z "},"K":{"ha":890,"x_min":0,"x_max":0,"o":"m 42 0 l 263 0 b 204 253 226 35 204 139 l 204 263 b 347 575 204 503 269 575 b 514 392 438 575 493 454 l 647 0 l 824 0 b 688 213 779 35 728 107 l 625 396 b 510 564 599 474 560 529 l 674 869 b 863 1113 739 993 815 1081 l 624 1113 b 575 914 654 1083 624 1010 l 411 606 b 358 610 394 608 376 610 b 204 451 261 610 204 524 l 204 860 b 263 1113 204 974 226 1078 l 42 1113 b 100 860 78 1078 100 974 l 100 253 b 42 0 100 139 78 35 z "},"Ķ":{"ha":890,"x_min":0,"x_max":0,"o":"m 42 0 l 263 0 b 204 253 226 35 204 139 l 204 263 b 347 575 204 503 269 575 b 514 392 438 575 493 454 l 647 0 l 824 0 b 688 213 779 35 728 107 l 625 396 b 510 564 599 474 560 529 l 674 869 b 863 1113 739 993 815 1081 l 624 1113 b 575 914 654 1083 624 1010 l 411 606 b 358 610 394 608 376 610 b 204 451 261 610 204 524 l 204 860 b 263 1113 204 974 226 1078 l 42 1113 b 100 860 78 1078 100 974 l 100 253 b 42 0 100 139 78 35 z m 376 -154 l 404 -154 l 514 -3 l 410 -3 b 376 -154 410 -68 408 -93 z "},"L":{"ha":797,"x_min":0,"x_max":0,"o":"m 42 0 l 728 0 l 736 28 l 769 146 b 479 28 738 110 663 28 l 322 28 b 204 253 207 28 204 139 l 204 860 b 263 1113 204 974 226 1078 l 42 1113 b 100 860 78 1078 100 974 l 100 253 b 42 0 100 139 78 35 z "},"Ĺ":{"ha":797,"x_min":0,"x_max":0,"o":"m 42 0 l 728 0 l 736 28 l 769 146 b 479 28 738 110 663 28 l 322 28 b 204 253 207 28 204 139 l 204 860 b 263 1113 204 974 226 1078 l 42 1113 b 100 860 78 1078 100 974 l 100 253 b 42 0 100 139 78 35 z m 346 1239 b 360 1151 367 1206 378 1181 l 388 1151 l 450 1239 z "},"Ľ":{"ha":797,"x_min":0,"x_max":0,"o":"m 42 0 l 728 0 l 736 28 l 769 146 b 479 28 738 110 663 28 l 322 28 b 204 253 207 28 204 139 l 204 860 b 263 1113 204 974 226 1078 l 42 1113 b 100 860 78 1078 100 974 l 100 253 b 42 0 100 139 78 35 z m 624 826 b 654 739 650 793 654 767 l 682 739 l 711 826 z "},"Ļ":{"ha":797,"x_min":0,"x_max":0,"o":"m 42 0 l 363 0 b 329 -142 363 -58 360 -83 l 357 -142 l 460 0 l 728 0 l 736 28 l 769 146 b 479 28 738 110 663 28 l 322 28 b 204 253 207 28 204 139 l 204 860 b 263 1113 204 974 226 1078 l 42 1113 b 100 860 78 1078 100 974 l 100 253 b 42 0 100 139 78 35 z "},"Ł":{"ha":797,"x_min":0,"x_max":0,"o":"m 42 0 l 728 0 l 736 28 l 769 146 b 479 28 738 110 663 28 l 322 28 b 204 253 207 28 204 139 l 204 603 l 329 649 l 329 678 l 204 632 l 204 860 b 263 1113 204 974 226 1078 l 42 1113 b 100 860 78 1078 100 974 l 100 594 l 56 578 l 56 549 l 100 565 l 100 253 b 42 0 100 139 78 35 z "},"M":{"ha":1071,"x_min":0,"x_max":0,"o":"m 49 0 l 193 0 b 135 253 157 35 135 139 l 135 971 b 179 876 150 942 165 910 l 336 424 b 743 -21 436 121 524 -21 b 978 426 975 -21 978 194 l 978 431 l 978 435 l 978 860 b 1036 1113 978 974 1000 1078 l 874 1113 l 510 261 b 456 408 490 308 472 358 l 296 869 b 267 1113 256 986 231 1078 l 35 1113 b 107 1018 53 1094 79 1061 l 107 253 b 49 0 107 139 85 35 z m 525 226 l 874 1042 l 874 435 b 743 7 874 239 874 7 b 525 226 650 7 582 100 z "},"N":{"ha":896,"x_min":0,"x_max":0,"o":"m 768 0 l 796 0 l 796 860 b 854 1113 796 974 818 1078 l 710 1113 b 768 860 746 1078 768 974 l 768 207 l 371 869 b 283 1113 304 982 264 1074 l 42 1113 b 143 1019 71 1100 107 1065 l 143 253 b 85 0 143 139 121 35 l 229 0 b 171 253 193 35 171 139 l 171 983 b 246 869 196 949 221 910 z "},"Ń":{"ha":896,"x_min":0,"x_max":0,"o":"m 768 0 l 796 0 l 796 860 b 854 1113 796 974 818 1078 l 710 1113 b 768 860 746 1078 768 974 l 768 207 l 371 869 b 283 1113 304 982 264 1074 l 42 1113 b 143 1019 71 1100 107 1065 l 143 253 b 85 0 143 139 121 35 l 229 0 b 171 253 193 35 171 139 l 171 983 b 246 869 196 949 221 910 z m 396 1239 b 410 1151 417 1206 428 1181 l 438 1151 l 500 1239 z "},"Ň":{"ha":896,"x_min":0,"x_max":0,"o":"m 768 0 l 796 0 l 796 860 b 854 1113 796 974 818 1078 l 710 1113 b 768 860 746 1078 768 974 l 768 207 l 371 869 b 283 1113 304 982 264 1074 l 42 1113 b 143 1019 71 1100 107 1065 l 143 253 b 85 0 143 139 121 35 l 229 0 b 171 253 193 35 171 139 l 171 983 b 246 869 196 949 221 910 z m 379 1239 l 432 1150 l 465 1150 l 518 1239 l 486 1239 l 449 1176 l 411 1239 z "},"Ņ":{"ha":896,"x_min":0,"x_max":0,"o":"m 768 0 l 796 0 l 796 860 b 854 1113 796 974 818 1078 l 710 1113 b 768 860 746 1078 768 974 l 768 207 l 371 869 b 283 1113 304 982 264 1074 l 42 1113 b 143 1019 71 1100 107 1065 l 143 253 b 85 0 143 139 121 35 l 229 0 b 171 253 193 35 171 139 l 171 983 b 246 869 196 949 221 910 z m 379 -154 l 407 -154 l 517 -3 l 413 -3 b 379 -154 413 -68 411 -93 z "},"Ñ":{"ha":896,"x_min":0,"x_max":0,"o":"m 768 0 l 796 0 l 796 860 b 854 1113 796 974 818 1078 l 710 1113 b 768 860 746 1078 768 974 l 768 207 l 371 869 b 283 1113 304 982 264 1074 l 42 1113 b 143 1019 71 1100 107 1065 l 143 253 b 85 0 143 139 121 35 l 229 0 b 171 253 193 35 171 139 l 171 983 b 246 869 196 949 221 910 z m 278 1153 l 306 1153 b 364 1240 306 1178 306 1240 b 526 1136 443 1240 436 1136 b 618 1244 574 1136 618 1161 l 590 1244 b 525 1150 590 1169 569 1150 b 364 1254 453 1150 454 1254 b 278 1153 328 1254 278 1239 z "},"O":{"ha":958,"x_min":0,"x_max":0,"o":"m 478 -22 b 931 557 715 -22 931 165 b 478 1133 931 946 715 1133 b 28 557 240 1133 28 946 b 478 -22 28 165 240 -22 z m 149 557 b 429 1096 114 979 276 1096 b 810 557 583 1096 775 979 b 526 15 844 133 681 15 b 149 557 374 15 183 133 z m 297 557 b 482 314 383 557 482 482 b 667 557 482 482 574 557 b 482 800 574 557 482 625 b 297 557 482 625 383 557 z "},"Ó":{"ha":958,"x_min":0,"x_max":0,"o":"m 478 -22 b 931 557 715 -22 931 165 b 478 1133 931 946 715 1133 b 28 557 240 1133 28 946 b 478 -22 28 165 240 -22 z m 149 557 b 429 1096 114 979 276 1096 b 810 557 583 1096 775 979 b 526 15 844 133 681 15 b 149 557 374 15 183 133 z m 297 557 b 482 314 383 557 482 482 b 667 557 482 482 574 557 b 482 800 574 557 482 625 b 297 557 482 625 383 557 z m 426 1239 b 440 1151 447 1206 458 1181 l 468 1151 l 531 1239 z "},"Ô":{"ha":958,"x_min":0,"x_max":0,"o":"m 478 -22 b 931 557 715 -22 931 165 b 478 1133 931 946 715 1133 b 28 557 240 1133 28 946 b 478 -22 28 165 240 -22 z m 149 557 b 429 1096 114 979 276 1096 b 810 557 583 1096 775 979 b 526 15 844 133 681 15 b 149 557 374 15 183 133 z m 297 557 b 482 314 383 557 482 482 b 667 557 482 482 574 557 b 482 800 574 557 482 625 b 297 557 482 625 383 557 z m 410 1150 l 442 1150 l 479 1213 l 517 1150 l 549 1150 l 496 1239 l 463 1239 z "},"Ö":{"ha":958,"x_min":0,"x_max":0,"o":"m 478 -22 b 931 557 715 -22 931 165 b 478 1133 931 946 715 1133 b 28 557 240 1133 28 946 b 478 -22 28 165 240 -22 z m 149 557 b 429 1096 114 979 276 1096 b 810 557 583 1096 775 979 b 526 15 844 133 681 15 b 149 557 374 15 183 133 z m 297 557 b 482 314 383 557 482 482 b 667 557 482 482 574 557 b 482 800 574 557 482 625 b 297 557 482 625 383 557 z m 403 1194 b 438 1160 403 1175 418 1160 b 472 1194 456 1160 472 1175 b 438 1229 472 1214 456 1229 b 403 1194 418 1229 403 1214 z m 556 1194 b 590 1160 556 1175 571 1160 b 625 1194 608 1160 625 1175 b 590 1229 625 1214 608 1229 b 556 1194 571 1229 556 1214 z "},"Ò":{"ha":958,"x_min":0,"x_max":0,"o":"m 478 -22 b 931 557 715 -22 931 165 b 478 1133 931 946 715 1133 b 28 557 240 1133 28 946 b 478 -22 28 165 240 -22 z m 149 557 b 429 1096 114 979 276 1096 b 810 557 583 1096 775 979 b 526 15 844 133 681 15 b 149 557 374 15 183 133 z m 297 557 b 482 314 383 557 482 482 b 667 557 482 482 574 557 b 482 800 574 557 482 625 b 297 557 482 625 383 557 z m 426 1239 l 489 1151 l 517 1151 b 531 1239 499 1181 510 1206 z "},"Ő":{"ha":958,"x_min":0,"x_max":0,"o":"m 478 -22 b 931 557 715 -22 931 165 b 478 1133 931 946 715 1133 b 28 557 240 1133 28 946 b 478 -22 28 165 240 -22 z m 149 557 b 429 1096 114 979 276 1096 b 810 557 583 1096 775 979 b 526 15 844 133 681 15 b 149 557 374 15 183 133 z m 297 557 b 482 314 383 557 482 482 b 667 557 482 482 574 557 b 482 800 574 557 482 625 b 297 557 482 625 383 557 z m 365 1239 b 379 1151 386 1206 397 1181 l 407 1151 l 469 1239 z m 489 1239 b 503 1151 510 1206 521 1181 l 531 1151 l 593 1239 z "},"Ō":{"ha":958,"x_min":0,"x_max":0,"o":"m 478 -22 b 931 557 715 -22 931 165 b 478 1133 931 946 715 1133 b 28 557 240 1133 28 946 b 478 -22 28 165 240 -22 z m 149 557 b 429 1096 114 979 276 1096 b 810 557 583 1096 775 979 b 526 15 844 133 681 15 b 149 557 374 15 183 133 z m 297 557 b 482 314 383 557 482 482 b 667 557 482 482 574 557 b 482 800 574 557 482 625 b 297 557 482 625 383 557 z m 342 1183 l 615 1183 l 615 1211 l 342 1211 z "},"Ø":{"ha":958,"x_min":0,"x_max":0,"o":"m 236 0 l 267 0 l 278 28 b 478 -22 339 -6 407 -22 b 931 557 715 -22 931 165 b 713 1063 931 808 840 975 l 733 1111 l 703 1111 l 689 1078 b 478 1133 625 1115 553 1133 b 28 557 240 1133 28 946 b 254 42 28 297 121 126 z m 149 557 b 429 1096 114 979 276 1096 b 654 996 503 1096 585 1069 l 511 656 b 482 800 493 692 482 739 b 297 557 482 625 383 557 b 438 479 347 557 400 532 l 290 131 b 149 557 221 213 165 347 z m 311 107 l 456 449 b 482 314 472 413 482 368 b 667 557 482 482 574 557 b 529 625 615 557 565 578 l 675 972 b 810 557 742 889 793 757 b 526 15 844 133 681 15 b 311 107 457 15 379 40 z "},"Õ":{"ha":958,"x_min":0,"x_max":0,"o":"m 478 -22 b 931 557 715 -22 931 165 b 478 1133 931 946 715 1133 b 28 557 240 1133 28 946 b 478 -22 28 165 240 -22 z m 149 557 b 429 1096 114 979 276 1096 b 810 557 583 1096 775 979 b 526 15 844 133 681 15 b 149 557 374 15 183 133 z m 297 557 b 482 314 383 557 482 482 b 667 557 482 482 574 557 b 482 800 574 557 482 625 b 297 557 482 625 383 557 z m 308 1153 l 336 1153 b 394 1240 336 1178 336 1240 b 557 1136 474 1240 467 1136 b 649 1244 604 1136 649 1161 l 621 1244 b 556 1150 621 1169 600 1150 b 394 1254 483 1150 485 1254 b 308 1153 358 1254 308 1239 z "},"Œ":{"ha":1367,"x_min":0,"x_max":0,"o":"m 493 -22 b 629 0 540 -22 586 -15 l 1297 0 l 1306 28 l 1339 146 b 1049 28 1307 110 1232 28 l 906 28 b 788 253 790 28 788 139 l 788 438 b 957 621 788 578 843 621 l 1003 621 b 1256 547 1117 621 1221 583 l 1256 722 b 1003 649 1221 686 1117 649 l 957 649 b 788 574 874 649 818 628 l 788 860 b 904 1085 788 974 790 1085 l 1058 1085 b 1311 1004 1226 1085 1276 1040 l 1311 1113 l 625 1113 b 493 1133 583 1126 539 1133 b 43 557 256 1133 43 946 b 493 -22 43 165 256 -22 z m 164 557 b 444 1096 129 979 292 1096 b 672 993 519 1096 603 1069 b 683 860 679 953 683 907 l 683 253 b 649 38 683 167 671 86 b 542 15 614 22 578 15 b 164 557 389 15 199 133 z m 313 557 b 497 314 399 557 497 482 b 682 557 497 482 589 557 b 497 800 589 557 497 625 b 313 557 497 625 399 557 z "},"P":{"ha":788,"x_min":0,"x_max":0,"o":"m 42 0 l 263 0 b 204 253 226 35 204 139 l 204 526 b 431 415 229 472 311 415 b 761 763 606 415 761 553 b 363 1133 761 1013 581 1133 b 193 1113 289 1133 258 1113 l 42 1113 b 100 860 78 1078 100 974 l 100 253 b 42 0 100 139 78 35 z m 204 701 l 204 861 b 347 1106 204 974 213 1106 b 632 804 453 1106 600 1043 b 431 443 660 594 571 443 b 204 701 326 443 204 508 z "},"Þ":{"ha":788,"x_min":0,"x_max":0,"o":"m 42 0 l 263 0 b 204 253 226 35 204 139 l 204 401 b 431 290 229 347 311 290 b 761 638 606 290 761 428 b 363 1008 761 888 581 1008 b 214 989 297 1008 265 992 b 263 1113 224 1046 240 1092 l 42 1113 b 100 860 78 1078 100 974 l 100 253 b 42 0 100 139 78 35 z m 204 576 l 204 736 b 347 981 204 849 213 981 b 632 679 453 981 600 918 b 431 318 660 469 571 318 b 204 576 326 318 204 383 z "},"Q":{"ha":958,"x_min":0,"x_max":0,"o":"m 478 -22 b 522 -19 493 -22 507 -21 b 765 -196 585 -153 649 -196 l 765 -182 b 576 -11 678 -182 622 -115 b 931 557 772 35 931 221 b 478 1133 931 946 715 1133 b 28 557 240 1133 28 946 b 478 -22 28 165 240 -22 z m 149 557 b 429 1096 114 979 276 1096 b 810 557 583 1096 775 979 b 564 18 842 168 706 36 b 501 193 543 69 522 129 l 464 306 l 268 306 b 479 85 313 286 418 239 b 486 65 482 78 485 72 l 488 63 b 507 15 494 46 500 31 b 149 557 357 26 182 151 z "},"R":{"ha":851,"x_min":0,"x_max":0,"o":"m 42 0 l 263 0 b 204 253 226 35 204 139 l 204 263 b 347 575 204 503 269 575 b 514 392 438 575 493 454 l 647 0 l 824 0 b 688 213 779 35 728 107 l 625 396 b 597 460 617 419 608 440 b 761 763 694 517 761 625 b 363 1133 761 1013 581 1133 b 193 1113 289 1133 258 1113 l 42 1113 b 100 860 78 1078 100 974 l 100 253 b 42 0 100 139 78 35 z m 204 451 l 204 861 b 347 1106 204 974 213 1106 b 632 804 453 1106 600 1043 b 568 507 649 678 622 571 b 358 610 515 576 443 610 b 204 451 261 610 204 524 z "},"Ŕ":{"ha":851,"x_min":0,"x_max":0,"o":"m 42 0 l 263 0 b 204 253 226 35 204 139 l 204 263 b 347 575 204 503 269 575 b 514 392 438 575 493 454 l 647 0 l 824 0 b 688 213 779 35 728 107 l 625 396 b 597 460 617 419 608 440 b 761 763 694 517 761 625 b 363 1133 761 1013 581 1133 b 193 1113 289 1133 258 1113 l 42 1113 b 100 860 78 1078 100 974 l 100 253 b 42 0 100 139 78 35 z m 204 451 l 204 861 b 347 1106 204 974 213 1106 b 632 804 453 1106 600 1043 b 568 507 649 678 622 571 b 358 610 515 576 443 610 b 204 451 261 610 204 524 z m 374 1239 b 388 1151 394 1206 406 1181 l 415 1151 l 478 1239 z "},"Ř":{"ha":851,"x_min":0,"x_max":0,"o":"m 42 0 l 263 0 b 204 253 226 35 204 139 l 204 263 b 347 575 204 503 269 575 b 514 392 438 575 493 454 l 647 0 l 824 0 b 688 213 779 35 728 107 l 625 396 b 597 460 617 419 608 440 b 761 763 694 517 761 625 b 363 1133 761 1013 581 1133 b 193 1113 289 1133 258 1113 l 42 1113 b 100 860 78 1078 100 974 l 100 253 b 42 0 100 139 78 35 z m 204 451 l 204 861 b 347 1106 204 974 213 1106 b 632 804 453 1106 600 1043 b 568 507 649 678 622 571 b 358 610 515 576 443 610 b 204 451 261 610 204 524 z m 357 1239 l 410 1150 l 443 1150 l 496 1239 l 464 1239 l 426 1176 l 389 1239 z "},"Ŗ":{"ha":851,"x_min":0,"x_max":0,"o":"m 42 0 l 263 0 b 204 253 226 35 204 139 l 204 263 b 347 575 204 503 269 575 b 514 392 438 575 493 454 l 647 0 l 824 0 b 688 213 779 35 728 107 l 625 396 b 597 460 617 419 608 440 b 761 763 694 517 761 625 b 363 1133 761 1013 581 1133 b 193 1113 289 1133 258 1113 l 42 1113 b 100 860 78 1078 100 974 l 100 253 b 42 0 100 139 78 35 z m 204 451 l 204 861 b 347 1106 204 974 213 1106 b 632 804 453 1106 600 1043 b 568 507 649 678 622 571 b 358 610 515 576 443 610 b 204 451 261 610 204 524 z m 357 -154 l 385 -154 l 494 -3 l 390 -3 b 357 -154 390 -68 389 -93 z "},"S":{"ha":788,"x_min":0,"x_max":0,"o":"m 381 -22 b 760 289 586 -22 760 94 b 192 939 760 719 192 593 b 397 1106 192 1043 297 1106 b 613 922 528 1106 599 1031 l 710 1044 b 390 1133 611 1044 556 1133 b 85 897 228 1133 85 1044 b 649 271 85 510 649 593 b 400 6 649 106 524 6 b 140 329 246 6 140 139 l 28 186 b 381 -22 69 54 196 -22 z "},"Ś":{"ha":788,"x_min":0,"x_max":0,"o":"m 381 -22 b 760 289 586 -22 760 94 b 192 939 760 719 192 593 b 397 1106 192 1043 297 1106 b 613 922 528 1106 599 1031 l 710 1044 b 390 1133 611 1044 556 1133 b 85 897 228 1133 85 1044 b 649 271 85 510 649 593 b 400 6 649 106 524 6 b 140 329 246 6 140 139 l 28 186 b 381 -22 69 54 196 -22 z m 342 1239 b 356 1151 363 1206 374 1181 l 383 1151 l 446 1239 z "},"Š":{"ha":788,"x_min":0,"x_max":0,"o":"m 381 -22 b 760 289 586 -22 760 94 b 192 939 760 719 192 593 b 397 1106 192 1043 297 1106 b 613 922 528 1106 599 1031 l 710 1044 b 390 1133 611 1044 556 1133 b 85 897 228 1133 85 1044 b 649 271 85 510 649 593 b 400 6 649 106 524 6 b 140 329 246 6 140 139 l 28 186 b 381 -22 69 54 196 -22 z m 325 1239 l 378 1150 l 411 1150 l 464 1239 l 432 1239 l 394 1176 l 357 1239 z "},"Ş":{"ha":788,"x_min":0,"x_max":0,"o":"m 381 -22 l 367 -22 l 338 -110 l 351 -110 b 411 -135 376 -100 411 -110 b 331 -168 411 -164 360 -168 l 331 -182 b 458 -121 376 -182 458 -169 b 358 -89 458 -79 396 -76 z m 28 186 b 381 -22 69 54 196 -22 b 760 289 586 -22 760 94 b 192 939 760 719 192 593 b 397 1106 192 1043 297 1106 b 613 922 528 1106 599 1031 l 710 1044 b 390 1133 611 1044 556 1133 b 85 897 228 1133 85 1044 b 649 271 85 510 649 593 b 400 6 649 106 524 6 b 140 329 246 6 140 139 z "},"Ș":{"ha":788,"x_min":0,"x_max":0,"o":"m 325 -154 l 353 -154 l 451 -18 b 760 289 625 7 760 118 b 192 939 760 719 192 593 b 397 1106 192 1043 297 1106 b 613 922 528 1106 599 1031 l 710 1044 b 390 1133 611 1044 556 1133 b 85 897 228 1133 85 1044 b 649 271 85 510 649 593 b 400 6 649 106 524 6 b 140 329 246 6 140 139 l 28 186 b 358 -22 68 60 186 -15 b 325 -154 358 -74 354 -100 z "},"ẞ":{"ha":788,"x_min":0,"x_max":0,"o":"m 100 1042 l 100 253 b 42 0 100 139 78 35 l 204 0 l 204 861 b 342 1106 204 974 213 1106 b 571 860 403 1106 539 1099 b 497 611 588 729 549 651 b 424 619 467 618 440 619 b 222 504 311 619 251 561 l 250 504 b 394 585 285 561 336 585 b 650 321 493 585 626 535 b 421 6 682 38 492 6 b 308 38 388 6 346 14 l 308 -15 b 403 -22 333 -19 364 -22 b 758 321 603 -22 781 75 b 561 592 744 482 649 558 b 682 818 631 632 682 701 b 347 1133 682 1068 489 1133 b 193 1113 289 1133 258 1113 l 171 1113 b 100 1042 131 1113 100 1082 z "},"T":{"ha":999,"x_min":0,"x_max":0,"o":"m 389 0 l 610 0 b 551 253 574 35 551 139 l 551 860 b 668 1085 551 974 554 1085 l 674 1085 b 964 967 857 1085 922 1003 l 931 1085 l 922 1113 l 76 1113 l 68 1085 l 35 967 b 325 1085 76 1003 142 1085 l 331 1085 b 447 860 444 1085 447 974 l 447 253 b 389 0 447 139 425 35 z "},"Ť":{"ha":999,"x_min":0,"x_max":0,"o":"m 389 0 l 610 0 b 551 253 574 35 551 139 l 551 860 b 668 1085 551 974 554 1085 l 674 1085 b 964 967 857 1085 922 1003 l 931 1085 l 922 1113 l 76 1113 l 68 1085 l 35 967 b 325 1085 76 1003 142 1085 l 331 1085 b 447 860 444 1085 447 974 l 447 253 b 389 0 447 139 425 35 z m 431 1239 l 483 1150 l 517 1150 l 569 1239 l 538 1239 l 500 1176 l 463 1239 z "},"Ţ":{"ha":999,"x_min":0,"x_max":0,"o":"m 389 0 l 610 0 b 551 253 574 35 551 139 l 551 860 b 668 1085 551 974 554 1085 l 674 1085 b 964 967 857 1085 922 1003 l 931 1085 l 922 1113 l 76 1113 l 68 1085 l 35 967 b 325 1085 76 1003 142 1085 l 331 1085 b 447 860 444 1085 447 974 l 447 253 b 389 0 447 139 425 35 z m 436 -182 b 564 -121 482 -182 564 -169 b 464 -89 564 -79 501 -76 l 486 -22 l 472 -22 l 443 -110 l 457 -110 b 517 -135 482 -100 517 -110 b 436 -168 517 -164 465 -168 z "},"Ț":{"ha":999,"x_min":0,"x_max":0,"o":"m 389 0 l 610 0 b 551 253 574 35 551 139 l 551 860 b 668 1085 551 974 554 1085 l 674 1085 b 964 967 857 1085 922 1003 l 931 1085 l 922 1113 l 76 1113 l 68 1085 l 35 967 b 325 1085 76 1003 142 1085 l 331 1085 b 447 860 444 1085 447 974 l 447 253 b 389 0 447 139 425 35 z m 431 -154 l 458 -154 l 568 -3 l 464 -3 b 431 -154 464 -68 463 -93 z "},"U":{"ha":922,"x_min":0,"x_max":0,"o":"m 100 358 b 483 -22 104 97 238 -22 b 836 358 701 -22 832 53 l 836 371 l 836 860 b 894 1113 836 974 858 1078 l 750 1113 b 808 860 786 1078 808 974 l 808 371 b 483 6 808 90 710 6 b 204 371 301 6 204 121 l 204 860 b 263 1113 204 974 226 1078 l 42 1113 b 100 860 78 1078 100 974 z "},"Ú":{"ha":922,"x_min":0,"x_max":0,"o":"m 100 358 b 483 -22 104 97 238 -22 b 836 358 701 -22 832 53 l 836 371 l 836 860 b 894 1113 836 974 858 1078 l 750 1113 b 808 860 786 1078 808 974 l 808 371 b 483 6 808 90 710 6 b 204 371 301 6 204 121 l 204 860 b 263 1113 204 974 226 1078 l 42 1113 b 100 860 78 1078 100 974 z m 456 1239 b 469 1151 476 1206 488 1181 l 497 1151 l 560 1239 z "},"Û":{"ha":922,"x_min":0,"x_max":0,"o":"m 100 358 b 483 -22 104 97 238 -22 b 836 358 701 -22 832 53 l 836 371 l 836 860 b 894 1113 836 974 858 1078 l 750 1113 b 808 860 786 1078 808 974 l 808 371 b 483 6 808 90 710 6 b 204 371 301 6 204 121 l 204 860 b 263 1113 204 974 226 1078 l 42 1113 b 100 860 78 1078 100 974 z m 439 1150 l 471 1150 l 508 1213 l 546 1150 l 578 1150 l 525 1239 l 492 1239 z "},"Ü":{"ha":922,"x_min":0,"x_max":0,"o":"m 100 358 b 483 -22 104 97 238 -22 b 836 358 701 -22 832 53 l 836 371 l 836 860 b 894 1113 836 974 858 1078 l 750 1113 b 808 860 786 1078 808 974 l 808 371 b 483 6 808 90 710 6 b 204 371 301 6 204 121 l 204 860 b 263 1113 204 974 226 1078 l 42 1113 b 100 860 78 1078 100 974 z m 432 1194 b 467 1160 432 1175 447 1160 b 501 1194 485 1160 501 1175 b 467 1229 501 1214 485 1229 b 432 1194 447 1229 432 1214 z m 585 1194 b 619 1160 585 1175 600 1160 b 654 1194 638 1160 654 1175 b 619 1229 654 1214 638 1229 b 585 1194 600 1229 585 1214 z "},"Ù":{"ha":922,"x_min":0,"x_max":0,"o":"m 100 358 b 483 -22 104 97 238 -22 b 836 358 701 -22 832 53 l 836 371 l 836 860 b 894 1113 836 974 858 1078 l 750 1113 b 808 860 786 1078 808 974 l 808 371 b 483 6 808 90 710 6 b 204 371 301 6 204 121 l 204 860 b 263 1113 204 974 226 1078 l 42 1113 b 100 860 78 1078 100 974 z m 456 1239 l 518 1151 l 546 1151 b 560 1239 528 1181 539 1206 z "},"Ű":{"ha":922,"x_min":0,"x_max":0,"o":"m 100 358 b 483 -22 104 97 238 -22 b 836 358 701 -22 832 53 l 836 371 l 836 860 b 894 1113 836 974 858 1078 l 750 1113 b 808 860 786 1078 808 974 l 808 371 b 483 6 808 90 710 6 b 204 371 301 6 204 121 l 204 860 b 263 1113 204 974 226 1078 l 42 1113 b 100 860 78 1078 100 974 z m 394 1239 b 408 1151 415 1206 426 1181 l 436 1151 l 499 1239 z m 518 1239 b 532 1151 539 1206 550 1181 l 560 1151 l 622 1239 z "},"Ū":{"ha":922,"x_min":0,"x_max":0,"o":"m 100 358 b 483 -22 104 97 238 -22 b 836 358 701 -22 832 53 l 836 371 l 836 860 b 894 1113 836 974 858 1078 l 750 1113 b 808 860 786 1078 808 974 l 808 371 b 483 6 808 90 710 6 b 204 371 301 6 204 121 l 204 860 b 263 1113 204 974 226 1078 l 42 1113 b 100 860 78 1078 100 974 z m 371 1183 l 644 1183 l 644 1211 l 371 1211 z "},"Ų":{"ha":922,"x_min":0,"x_max":0,"o":"m 100 358 b 471 -22 104 103 232 -18 b 454 -65 460 -33 454 -47 b 582 -144 454 -132 536 -144 l 582 -131 b 501 -69 553 -131 501 -125 b 519 -21 501 -47 507 -31 b 836 358 715 -12 833 69 l 836 371 l 836 860 b 894 1113 836 974 858 1078 l 750 1113 b 808 860 786 1078 808 974 l 808 371 b 483 6 808 90 710 6 b 204 371 301 6 204 121 l 204 860 b 263 1113 204 974 226 1078 l 42 1113 b 100 860 78 1078 100 974 z "},"Ů":{"ha":922,"x_min":0,"x_max":0,"o":"m 100 358 b 483 -22 104 97 238 -22 b 836 358 701 -22 832 53 l 836 371 l 836 860 b 894 1113 836 974 858 1078 l 750 1113 b 808 860 786 1078 808 974 l 808 371 b 483 6 808 90 710 6 b 204 371 301 6 204 121 l 204 860 b 263 1113 204 974 226 1078 l 42 1113 b 100 860 78 1078 100 974 z m 450 1199 b 507 1140 450 1164 476 1140 b 565 1199 539 1140 565 1164 b 507 1256 565 1232 539 1256 b 450 1199 476 1256 450 1232 z m 474 1199 b 507 1232 474 1218 489 1232 b 542 1199 526 1232 542 1218 b 507 1164 542 1178 526 1164 b 474 1199 489 1164 474 1178 z "},"Ũ":{"ha":922,"x_min":0,"x_max":0,"o":"m 100 358 b 483 -22 104 97 238 -22 b 836 358 701 -22 832 53 l 836 371 l 836 860 b 894 1113 836 974 858 1078 l 750 1113 b 808 860 786 1078 808 974 l 808 371 b 483 6 808 90 710 6 b 204 371 301 6 204 121 l 204 860 b 263 1113 204 974 226 1078 l 42 1113 b 100 860 78 1078 100 974 z m 338 1153 l 365 1153 b 424 1240 365 1178 365 1240 b 586 1136 503 1240 496 1136 b 678 1244 633 1136 678 1161 l 650 1244 b 585 1150 650 1169 629 1150 b 424 1254 513 1150 514 1254 b 338 1153 388 1254 338 1239 z "},"V":{"ha":1003,"x_min":0,"x_max":0,"o":"m 492 0 l 664 0 b 582 110 643 19 613 58 l 854 869 b 1003 1113 901 993 967 1078 l 856 1113 b 838 901 888 1082 869 1003 l 564 140 b 519 235 549 169 533 201 l 289 869 b 260 1113 249 986 224 1078 l 28 1113 b 172 878 63 1079 126 990 z "},"W":{"ha":1336,"x_min":0,"x_max":0,"o":"m 506 0 l 678 0 b 596 110 657 19 626 58 l 749 535 l 943 0 l 1115 0 b 1033 110 1094 19 1064 58 l 1296 842 b 1132 1139 1333 951 1332 1139 b 828 839 961 1139 871 972 l 790 732 l 740 869 b 711 1113 700 986 675 1078 l 479 1113 b 624 878 514 1079 578 990 l 733 575 l 578 142 b 533 235 563 169 547 201 l 303 869 b 274 1113 263 986 238 1078 l 42 1113 b 186 878 76 1079 140 990 z m 804 692 l 860 846 b 1131 1111 908 976 986 1111 b 1268 844 1307 1111 1303 954 l 1015 142 b 971 235 1000 169 985 201 z "},"Ẃ":{"ha":1336,"x_min":0,"x_max":0,"o":"m 506 0 l 678 0 b 596 110 657 19 626 58 l 749 535 l 943 0 l 1115 0 b 1033 110 1094 19 1064 58 l 1296 842 b 1132 1139 1333 951 1332 1139 b 828 839 961 1139 871 972 l 790 732 l 740 869 b 711 1113 700 986 675 1078 l 479 1113 b 624 878 514 1079 578 990 l 733 575 l 578 142 b 533 235 563 169 547 201 l 303 869 b 274 1113 263 986 238 1078 l 42 1113 b 186 878 76 1079 140 990 z m 726 1239 b 740 1151 747 1206 758 1181 l 768 1151 l 831 1239 z m 804 692 l 860 846 b 1131 1111 908 976 986 1111 b 1268 844 1307 1111 1303 954 l 1015 142 b 971 235 1000 169 985 201 z "},"Ŵ":{"ha":1336,"x_min":0,"x_max":0,"o":"m 506 0 l 678 0 b 596 110 657 19 626 58 l 749 535 l 943 0 l 1115 0 b 1033 110 1094 19 1064 58 l 1296 842 b 1132 1139 1333 951 1332 1139 b 828 839 961 1139 871 972 l 790 732 l 740 869 b 711 1113 700 986 675 1078 l 479 1113 b 624 878 514 1079 578 990 l 733 575 l 578 142 b 533 235 563 169 547 201 l 303 869 b 274 1113 263 986 238 1078 l 42 1113 b 186 878 76 1079 140 990 z m 710 1150 l 742 1150 l 779 1213 l 817 1150 l 849 1150 l 796 1239 l 763 1239 z m 804 692 l 860 846 b 1131 1111 908 976 986 1111 b 1268 844 1307 1111 1303 954 l 1015 142 b 971 235 1000 169 985 201 z "},"Ẅ":{"ha":1336,"x_min":0,"x_max":0,"o":"m 506 0 l 678 0 b 596 110 657 19 626 58 l 749 535 l 943 0 l 1115 0 b 1033 110 1094 19 1064 58 l 1296 842 b 1132 1139 1333 951 1332 1139 b 828 839 961 1139 871 972 l 790 732 l 740 869 b 711 1113 700 986 675 1078 l 479 1113 b 624 878 514 1079 578 990 l 733 575 l 578 142 b 533 235 563 169 547 201 l 303 869 b 274 1113 263 986 238 1078 l 42 1113 b 186 878 76 1079 140 990 z m 703 1194 b 738 1160 703 1175 718 1160 b 772 1194 756 1160 772 1175 b 738 1229 772 1214 756 1229 b 703 1194 718 1229 703 1214 z m 804 692 l 860 846 b 1131 1111 908 976 986 1111 b 1268 844 1307 1111 1303 954 l 1015 142 b 971 235 1000 169 985 201 z m 856 1194 b 890 1160 856 1175 871 1160 b 925 1194 908 1160 925 1175 b 890 1229 925 1214 908 1229 b 856 1194 871 1229 856 1214 z "},"Ẁ":{"ha":1336,"x_min":0,"x_max":0,"o":"m 506 0 l 678 0 b 596 110 657 19 626 58 l 749 535 l 943 0 l 1115 0 b 1033 110 1094 19 1064 58 l 1296 842 b 1132 1139 1333 951 1332 1139 b 828 839 961 1139 871 972 l 790 732 l 740 869 b 711 1113 700 986 675 1078 l 479 1113 b 624 878 514 1079 578 990 l 733 575 l 578 142 b 533 235 563 169 547 201 l 303 869 b 274 1113 263 986 238 1078 l 42 1113 b 186 878 76 1079 140 990 z m 726 1239 l 789 1151 l 817 1151 b 831 1239 799 1181 810 1206 z m 804 692 l 860 846 b 1131 1111 908 976 986 1111 b 1268 844 1307 1111 1303 954 l 1015 142 b 971 235 1000 169 985 201 z "},"X":{"ha":922,"x_min":0,"x_max":0,"o":"m 713 0 l 894 0 b 699 243 838 25 764 126 l 503 592 l 664 869 b 860 1113 729 986 803 1088 l 710 1113 b 638 879 729 1075 696 988 l 486 619 l 336 888 b 268 1113 281 992 250 1075 l 28 1113 b 224 869 85 1088 158 986 l 413 535 l 244 243 l 244 243 l 243 240 l 222 204 b 49 0 163 104 99 22 l 199 0 b 276 242 179 39 215 131 l 428 506 z "},"Y":{"ha":993,"x_min":0,"x_max":0,"o":"m 393 0 l 614 0 b 556 253 578 35 556 139 l 556 394 l 796 872 b 972 1113 861 994 929 1082 l 824 1113 b 764 869 858 1079 821 986 l 542 428 l 317 869 b 253 1113 261 979 217 1078 l 21 1113 b 196 869 69 1082 138 985 l 451 371 l 451 253 b 393 0 451 139 429 35 z "},"Ý":{"ha":993,"x_min":0,"x_max":0,"o":"m 393 0 l 614 0 b 556 253 578 35 556 139 l 556 394 l 796 872 b 972 1113 861 994 929 1082 l 824 1113 b 764 869 858 1079 821 986 l 542 428 l 317 869 b 253 1113 261 979 217 1078 l 21 1113 b 196 869 69 1082 138 985 l 451 371 l 451 253 b 393 0 451 139 429 35 z m 444 1239 b 458 1151 465 1206 476 1181 l 486 1151 l 549 1239 z "},"Ŷ":{"ha":993,"x_min":0,"x_max":0,"o":"m 393 0 l 614 0 b 556 253 578 35 556 139 l 556 394 l 796 872 b 972 1113 861 994 929 1082 l 824 1113 b 764 869 858 1079 821 986 l 542 428 l 317 869 b 253 1113 261 979 217 1078 l 21 1113 b 196 869 69 1082 138 985 l 451 371 l 451 253 b 393 0 451 139 429 35 z m 428 1150 l 460 1150 l 497 1213 l 535 1150 l 567 1150 l 514 1239 l 481 1239 z "},"Ÿ":{"ha":993,"x_min":0,"x_max":0,"o":"m 393 0 l 614 0 b 556 253 578 35 556 139 l 556 394 l 796 872 b 972 1113 861 994 929 1082 l 824 1113 b 764 869 858 1079 821 986 l 542 428 l 317 869 b 253 1113 261 979 217 1078 l 21 1113 b 196 869 69 1082 138 985 l 451 371 l 451 253 b 393 0 451 139 429 35 z m 421 1194 b 456 1160 421 1175 436 1160 b 490 1194 474 1160 490 1175 b 456 1229 490 1214 474 1229 b 421 1194 436 1229 421 1214 z m 574 1194 b 608 1160 574 1175 589 1160 b 643 1194 626 1160 643 1175 b 608 1229 643 1214 626 1229 b 574 1194 589 1229 574 1214 z "},"Ỳ":{"ha":993,"x_min":0,"x_max":0,"o":"m 393 0 l 614 0 b 556 253 578 35 556 139 l 556 394 l 796 872 b 972 1113 861 994 929 1082 l 824 1113 b 764 869 858 1079 821 986 l 542 428 l 317 869 b 253 1113 261 979 217 1078 l 21 1113 b 196 869 69 1082 138 985 l 451 371 l 451 253 b 393 0 451 139 429 35 z m 444 1239 l 507 1151 l 535 1151 b 549 1239 517 1181 528 1206 z "},"Ỹ":{"ha":993,"x_min":0,"x_max":0,"o":"m 393 0 l 614 0 b 556 253 578 35 556 139 l 556 394 l 796 872 b 972 1113 861 994 929 1082 l 824 1113 b 764 869 858 1079 821 986 l 542 428 l 317 869 b 253 1113 261 979 217 1078 l 21 1113 b 196 869 69 1082 138 985 l 451 371 l 451 253 b 393 0 451 139 429 35 z m 326 1153 l 354 1153 b 413 1240 354 1178 354 1240 b 575 1136 492 1240 485 1136 b 667 1244 622 1136 667 1161 l 639 1244 b 574 1150 639 1169 618 1150 b 413 1254 501 1150 503 1254 b 326 1153 376 1254 326 1239 z "},"Z":{"ha":876,"x_min":0,"x_max":0,"o":"m 28 0 l 807 0 l 815 28 l 849 146 b 558 28 817 110 742 28 l 221 28 l 847 1111 l 119 1111 l 113 1083 l 79 965 b 369 1083 111 1001 186 1083 l 707 1083 l 221 243 b 28 0 154 126 71 28 z "},"Ź":{"ha":876,"x_min":0,"x_max":0,"o":"m 28 0 l 807 0 l 815 28 l 849 146 b 558 28 817 110 742 28 l 221 28 l 847 1111 l 119 1111 l 113 1083 l 79 965 b 369 1083 111 1001 186 1083 l 707 1083 l 221 243 b 28 0 154 126 71 28 z m 386 1239 b 400 1151 407 1206 418 1181 l 428 1151 l 490 1239 z "},"Ž":{"ha":876,"x_min":0,"x_max":0,"o":"m 28 0 l 807 0 l 815 28 l 849 146 b 558 28 817 110 742 28 l 221 28 l 847 1111 l 119 1111 l 113 1083 l 79 965 b 369 1083 111 1001 186 1083 l 707 1083 l 221 243 b 28 0 154 126 71 28 z m 369 1239 l 422 1150 l 456 1150 l 508 1239 l 476 1239 l 439 1176 l 401 1239 z "},"Ż":{"ha":876,"x_min":0,"x_max":0,"o":"m 28 0 l 807 0 l 815 28 l 849 146 b 558 28 817 110 742 28 l 221 28 l 847 1111 l 119 1111 l 113 1083 l 79 965 b 369 1083 111 1001 186 1083 l 707 1083 l 221 243 b 28 0 154 126 71 28 z m 404 1196 b 439 1161 404 1176 419 1161 b 474 1196 457 1161 474 1176 b 439 1231 474 1215 457 1231 b 404 1196 419 1231 404 1215 z "},"a":{"ha":1017,"x_min":0,"x_max":0,"o":"m 764 0 l 996 0 b 851 235 961 33 897 122 l 532 1113 l 360 1113 b 442 1003 381 1093 411 1054 l 169 243 b 21 0 122 119 57 35 l 168 0 b 186 211 136 31 154 110 l 460 972 b 504 878 475 943 490 911 l 735 243 b 764 0 775 126 800 35 z "},"á":{"ha":1017,"x_min":0,"x_max":0,"o":"m 764 0 l 996 0 b 851 235 961 33 897 122 l 532 1113 l 360 1113 b 442 1003 381 1093 411 1054 l 169 243 b 21 0 122 119 57 35 l 168 0 b 186 211 136 31 154 110 l 460 972 b 504 878 475 943 490 911 l 735 243 b 764 0 775 126 800 35 z m 393 1246 b 407 1158 414 1213 425 1188 l 435 1158 l 497 1246 z "},"ă":{"ha":1017,"x_min":0,"x_max":0,"o":"m 764 0 l 996 0 b 851 235 961 33 897 122 l 532 1113 l 360 1113 b 442 1003 381 1093 411 1054 l 169 243 b 21 0 122 119 57 35 l 168 0 b 186 211 136 31 154 110 l 460 972 b 504 878 475 943 490 911 l 735 243 b 764 0 775 126 800 35 z m 376 1246 b 444 1176 376 1201 408 1176 b 514 1246 482 1176 514 1201 l 486 1246 b 444 1190 486 1211 472 1190 b 404 1246 418 1190 404 1211 z "},"â":{"ha":1017,"x_min":0,"x_max":0,"o":"m 764 0 l 996 0 b 851 235 961 33 897 122 l 532 1113 l 360 1113 b 442 1003 381 1093 411 1054 l 169 243 b 21 0 122 119 57 35 l 168 0 b 186 211 136 31 154 110 l 460 972 b 504 878 475 943 490 911 l 735 243 b 764 0 775 126 800 35 z m 376 1157 l 408 1157 l 446 1219 l 483 1157 l 515 1157 l 463 1246 l 429 1246 z "},"ä":{"ha":1017,"x_min":0,"x_max":0,"o":"m 764 0 l 996 0 b 851 235 961 33 897 122 l 532 1113 l 360 1113 b 442 1003 381 1093 411 1054 l 169 243 b 21 0 122 119 57 35 l 168 0 b 186 211 136 31 154 110 l 460 972 b 504 878 475 943 490 911 l 735 243 b 764 0 775 126 800 35 z m 369 1201 b 404 1167 369 1182 385 1167 b 439 1201 422 1167 439 1182 b 404 1236 439 1221 422 1236 b 369 1201 385 1236 369 1221 z m 522 1201 b 557 1167 522 1182 538 1167 b 592 1201 575 1167 592 1182 b 557 1236 592 1221 575 1236 b 522 1201 538 1236 522 1221 z "},"à":{"ha":1017,"x_min":0,"x_max":0,"o":"m 764 0 l 996 0 b 851 235 961 33 897 122 l 532 1113 l 360 1113 b 442 1003 381 1093 411 1054 l 169 243 b 21 0 122 119 57 35 l 168 0 b 186 211 136 31 154 110 l 460 972 b 504 878 475 943 490 911 l 735 243 b 764 0 775 126 800 35 z m 393 1246 l 456 1158 l 483 1158 b 497 1246 465 1188 476 1213 z "},"ā":{"ha":1017,"x_min":0,"x_max":0,"o":"m 764 0 l 996 0 b 851 235 961 33 897 122 l 532 1113 l 360 1113 b 442 1003 381 1093 411 1054 l 169 243 b 21 0 122 119 57 35 l 168 0 b 186 211 136 31 154 110 l 460 972 b 504 878 475 943 490 911 l 735 243 b 764 0 775 126 800 35 z m 308 1190 l 582 1190 l 582 1218 l 308 1218 z "},"ą":{"ha":1017,"x_min":0,"x_max":0,"o":"m 21 0 l 168 0 b 186 211 136 31 154 110 l 460 972 b 504 878 475 943 490 911 l 735 243 b 764 0 775 126 800 35 l 824 0 b 788 -58 803 -11 788 -31 b 915 -137 788 -125 869 -137 l 915 -124 b 835 -62 886 -124 835 -118 b 882 -7 835 -28 847 -7 l 882 0 l 996 0 b 851 235 961 33 897 122 l 532 1113 l 360 1113 b 442 1003 381 1093 411 1054 l 169 243 b 21 0 122 119 57 35 z "},"å":{"ha":1017,"x_min":0,"x_max":0,"o":"m 764 0 l 996 0 b 851 235 961 33 897 122 l 532 1113 l 360 1113 b 442 1003 381 1093 411 1054 l 169 243 b 21 0 122 119 57 35 l 168 0 b 186 211 136 31 154 110 l 460 972 b 504 878 475 943 490 911 l 735 243 b 764 0 775 126 800 35 z m 388 1206 b 444 1147 388 1171 414 1147 b 503 1206 476 1147 503 1171 b 444 1263 503 1239 476 1263 b 388 1206 414 1263 388 1239 z m 411 1206 b 444 1239 411 1225 426 1239 b 479 1206 464 1239 479 1225 b 444 1171 479 1185 464 1171 b 411 1206 426 1171 411 1185 z "},"ã":{"ha":1017,"x_min":0,"x_max":0,"o":"m 764 0 l 996 0 b 851 235 961 33 897 122 l 532 1113 l 360 1113 b 442 1003 381 1093 411 1054 l 169 243 b 21 0 122 119 57 35 l 168 0 b 186 211 136 31 154 110 l 460 972 b 504 878 475 943 490 911 l 735 243 b 764 0 775 126 800 35 z m 275 1160 l 303 1160 b 361 1247 303 1185 303 1247 b 524 1143 440 1247 433 1143 b 615 1251 571 1143 615 1168 l 588 1251 b 522 1157 588 1176 567 1157 b 361 1261 450 1157 451 1261 b 275 1160 325 1261 275 1246 z "},"æ":{"ha":1224,"x_min":0,"x_max":0,"o":"m 21 0 l 168 0 b 186 211 136 31 154 110 l 500 1086 b 540 860 525 1039 540 953 l 540 253 b 482 0 540 139 518 35 l 1154 0 l 1163 28 l 1196 146 b 906 28 1164 110 1089 28 l 763 28 b 644 253 647 28 644 139 l 644 438 b 814 621 644 578 700 621 l 860 621 b 1113 547 974 621 1078 583 l 1113 722 b 860 649 1078 686 974 649 l 814 649 b 644 574 731 649 675 628 l 644 860 b 761 1085 644 974 647 1085 l 915 1085 b 1168 1004 1083 1085 1133 1040 l 1168 1113 l 481 1113 l 169 243 b 21 0 122 119 57 35 z "},"b":{"ha":788,"x_min":0,"x_max":0,"o":"m 42 0 l 204 0 b 403 -22 261 0 301 -22 b 760 253 526 -22 760 6 b 481 561 760 435 613 529 b 682 818 586 588 682 660 b 347 1133 682 1068 489 1133 b 193 1113 289 1133 258 1113 l 42 1113 b 100 860 78 1078 100 974 l 100 253 b 42 0 100 139 78 35 z m 204 253 l 204 644 b 378 550 236 582 318 550 b 651 274 476 547 625 490 b 421 6 681 28 492 6 b 204 253 338 6 204 60 z m 204 822 l 204 861 b 342 1106 204 974 213 1106 b 571 860 403 1106 539 1099 b 396 578 599 650 481 578 b 204 822 315 578 204 629 z "},"c":{"ha":864,"x_min":0,"x_max":0,"o":"m 478 -22 b 836 178 618 -22 751 43 l 814 194 b 526 43 721 71 626 43 b 149 557 374 43 183 133 b 429 1096 114 979 276 1096 b 636 904 508 1096 603 1033 l 743 1040 b 478 1133 667 1103 574 1133 b 28 557 240 1133 28 946 b 478 -22 28 165 240 -22 z "},"ć":{"ha":864,"x_min":0,"x_max":0,"o":"m 478 -22 b 836 178 618 -22 751 43 l 814 194 b 526 43 721 71 626 43 b 149 557 374 43 183 133 b 429 1096 114 979 276 1096 b 636 904 508 1096 603 1033 l 743 1040 b 478 1133 667 1103 574 1133 b 28 557 240 1133 28 946 b 478 -22 28 165 240 -22 z m 379 1246 b 393 1158 400 1213 411 1188 l 421 1158 l 483 1246 z "},"č":{"ha":864,"x_min":0,"x_max":0,"o":"m 478 -22 b 836 178 618 -22 751 43 l 814 194 b 526 43 721 71 626 43 b 149 557 374 43 183 133 b 429 1096 114 979 276 1096 b 636 904 508 1096 603 1033 l 743 1040 b 478 1133 667 1103 574 1133 b 28 557 240 1133 28 946 b 478 -22 28 165 240 -22 z m 363 1246 l 415 1157 l 449 1157 l 501 1246 l 469 1246 l 432 1183 l 394 1246 z "},"ç":{"ha":864,"x_min":0,"x_max":0,"o":"m 478 -22 b 836 178 618 -22 751 43 l 814 194 b 526 43 721 71 626 43 b 149 557 374 43 183 133 b 429 1096 114 979 276 1096 b 636 904 508 1096 603 1033 l 743 1040 b 478 1133 667 1103 574 1133 b 28 557 240 1133 28 946 b 478 -22 28 165 240 -22 z m 368 -182 b 496 -121 414 -182 496 -169 b 396 -89 496 -79 433 -76 l 418 -22 l 404 -22 l 375 -110 l 389 -110 b 449 -135 414 -100 449 -110 b 368 -168 449 -164 397 -168 z "},"ċ":{"ha":864,"x_min":0,"x_max":0,"o":"m 478 -22 b 836 178 618 -22 751 43 l 814 194 b 526 43 721 71 626 43 b 149 557 374 43 183 133 b 429 1096 114 979 276 1096 b 636 904 508 1096 603 1033 l 743 1040 b 478 1133 667 1103 574 1133 b 28 557 240 1133 28 946 b 478 -22 28 165 240 -22 z m 397 1203 b 432 1168 397 1183 413 1168 b 467 1203 450 1168 467 1183 b 432 1238 467 1222 450 1238 b 397 1203 413 1238 397 1222 z "},"d":{"ha":828,"x_min":0,"x_max":0,"o":"m 42 0 l 204 0 b 378 -22 261 0 279 -22 b 800 557 585 -22 800 165 b 347 1133 800 946 585 1133 b 193 1113 286 1133 258 1113 l 42 1113 b 100 860 78 1078 100 974 l 100 253 b 42 0 100 139 78 35 z m 204 253 l 204 861 b 342 1106 204 974 213 1106 b 679 557 453 1106 644 979 b 396 8 714 133 550 8 b 204 253 315 8 204 60 z "},"ð":{"ha":754,"x_min":0,"x_max":0,"o":"m 339 -22 b 713 581 665 -22 713 285 b 538 1061 711 769 667 961 l 603 1085 l 603 1114 l 511 1081 b 310 1133 457 1114 390 1133 b 161 1104 254 1133 204 1124 l 204 1051 b 329 1106 238 1086 281 1106 b 447 1057 371 1106 411 1089 l 329 1014 l 329 985 l 468 1035 b 597 585 544 949 596 789 b 394 711 563 669 490 711 b 42 343 197 711 42 593 b 339 -22 42 96 164 -22 z m 161 343 b 414 682 185 606 294 682 b 592 451 496 682 593 624 b 349 6 578 254 522 6 b 161 343 225 6 138 85 z "},"ď":{"ha":828,"x_min":0,"x_max":0,"o":"m 42 0 l 204 0 b 378 -22 261 0 279 -22 b 800 557 585 -22 800 165 b 347 1133 800 946 585 1133 b 193 1113 286 1133 258 1113 l 42 1113 b 100 860 78 1078 100 974 l 100 253 b 42 0 100 139 78 35 z m 204 253 l 204 861 b 342 1106 204 974 213 1106 b 679 557 453 1106 644 979 b 396 8 714 133 550 8 b 204 253 315 8 204 60 z m 672 1103 b 703 1015 699 1069 703 1043 l 731 1015 l 760 1103 z "},"đ":{"ha":828,"x_min":0,"x_max":0,"o":"m 42 0 l 204 0 b 378 -22 261 0 279 -22 b 800 557 585 -22 800 165 b 347 1133 800 946 585 1133 b 193 1113 286 1133 258 1113 l 42 1113 b 100 860 78 1078 100 974 l 100 615 l 64 615 l 64 588 l 100 588 l 100 253 b 42 0 100 139 78 35 z m 204 253 l 204 588 l 338 588 l 338 615 l 204 615 l 204 861 b 342 1106 204 974 213 1106 b 679 557 453 1106 644 979 b 396 8 714 133 550 8 b 204 253 315 8 204 60 z "},"e":{"ha":783,"x_min":0,"x_max":0,"o":"m 42 0 l 714 0 l 722 28 l 756 146 b 465 28 724 110 649 28 l 322 28 b 204 253 207 28 204 139 l 204 438 b 374 621 204 578 260 621 l 419 621 b 672 547 533 621 638 583 l 672 722 b 419 649 638 686 533 649 l 374 649 b 204 574 290 649 235 628 l 204 860 b 321 1085 204 974 207 1085 l 475 1085 b 728 1004 643 1085 693 1040 l 728 1113 l 42 1113 b 100 860 78 1078 100 974 l 100 253 b 42 0 100 139 78 35 z "},"é":{"ha":783,"x_min":0,"x_max":0,"o":"m 42 0 l 714 0 l 722 28 l 756 146 b 465 28 724 110 649 28 l 322 28 b 204 253 207 28 204 139 l 204 438 b 374 621 204 578 260 621 l 419 621 b 672 547 533 621 638 583 l 672 722 b 419 649 638 686 533 649 l 374 649 b 204 574 290 649 235 628 l 204 860 b 321 1085 204 974 207 1085 l 475 1085 b 728 1004 643 1085 693 1040 l 728 1113 l 42 1113 b 100 860 78 1078 100 974 l 100 253 b 42 0 100 139 78 35 z m 339 1246 b 353 1158 360 1213 371 1188 l 381 1158 l 443 1246 z "},"ě":{"ha":783,"x_min":0,"x_max":0,"o":"m 42 0 l 714 0 l 722 28 l 756 146 b 465 28 724 110 649 28 l 322 28 b 204 253 207 28 204 139 l 204 438 b 374 621 204 578 260 621 l 419 621 b 672 547 533 621 638 583 l 672 722 b 419 649 638 686 533 649 l 374 649 b 204 574 290 649 235 628 l 204 860 b 321 1085 204 974 207 1085 l 475 1085 b 728 1004 643 1085 693 1040 l 728 1113 l 42 1113 b 100 860 78 1078 100 974 l 100 253 b 42 0 100 139 78 35 z m 322 1246 l 375 1157 l 408 1157 l 461 1246 l 429 1246 l 392 1183 l 354 1246 z "},"ê":{"ha":783,"x_min":0,"x_max":0,"o":"m 42 0 l 714 0 l 722 28 l 756 146 b 465 28 724 110 649 28 l 322 28 b 204 253 207 28 204 139 l 204 438 b 374 621 204 578 260 621 l 419 621 b 672 547 533 621 638 583 l 672 722 b 419 649 638 686 533 649 l 374 649 b 204 574 290 649 235 628 l 204 860 b 321 1085 204 974 207 1085 l 475 1085 b 728 1004 643 1085 693 1040 l 728 1113 l 42 1113 b 100 860 78 1078 100 974 l 100 253 b 42 0 100 139 78 35 z m 322 1157 l 354 1157 l 392 1219 l 429 1157 l 461 1157 l 408 1246 l 375 1246 z "},"ë":{"ha":783,"x_min":0,"x_max":0,"o":"m 42 0 l 714 0 l 722 28 l 756 146 b 465 28 724 110 649 28 l 322 28 b 204 253 207 28 204 139 l 204 438 b 374 621 204 578 260 621 l 419 621 b 672 547 533 621 638 583 l 672 722 b 419 649 638 686 533 649 l 374 649 b 204 574 290 649 235 628 l 204 860 b 321 1085 204 974 207 1085 l 475 1085 b 728 1004 643 1085 693 1040 l 728 1113 l 42 1113 b 100 860 78 1078 100 974 l 100 253 b 42 0 100 139 78 35 z m 315 1201 b 350 1167 315 1182 331 1167 b 385 1201 368 1167 385 1182 b 350 1236 385 1221 368 1236 b 315 1201 331 1236 315 1221 z m 468 1201 b 503 1167 468 1182 483 1167 b 538 1201 521 1167 538 1182 b 503 1236 538 1221 521 1236 b 468 1201 483 1236 468 1221 z "},"ė":{"ha":783,"x_min":0,"x_max":0,"o":"m 42 0 l 714 0 l 722 28 l 756 146 b 465 28 724 110 649 28 l 322 28 b 204 253 207 28 204 139 l 204 438 b 374 621 204 578 260 621 l 419 621 b 672 547 533 621 638 583 l 672 722 b 419 649 638 686 533 649 l 374 649 b 204 574 290 649 235 628 l 204 860 b 321 1085 204 974 207 1085 l 475 1085 b 728 1004 643 1085 693 1040 l 728 1113 l 42 1113 b 100 860 78 1078 100 974 l 100 253 b 42 0 100 139 78 35 z m 357 1203 b 392 1168 357 1183 372 1168 b 426 1203 410 1168 426 1183 b 392 1238 426 1222 410 1238 b 357 1203 372 1238 357 1222 z "},"è":{"ha":783,"x_min":0,"x_max":0,"o":"m 42 0 l 714 0 l 722 28 l 756 146 b 465 28 724 110 649 28 l 322 28 b 204 253 207 28 204 139 l 204 438 b 374 621 204 578 260 621 l 419 621 b 672 547 533 621 638 583 l 672 722 b 419 649 638 686 533 649 l 374 649 b 204 574 290 649 235 628 l 204 860 b 321 1085 204 974 207 1085 l 475 1085 b 728 1004 643 1085 693 1040 l 728 1113 l 42 1113 b 100 860 78 1078 100 974 l 100 253 b 42 0 100 139 78 35 z m 339 1246 l 401 1158 l 429 1158 b 443 1246 411 1188 422 1213 z "},"ē":{"ha":783,"x_min":0,"x_max":0,"o":"m 42 0 l 714 0 l 722 28 l 756 146 b 465 28 724 110 649 28 l 322 28 b 204 253 207 28 204 139 l 204 438 b 374 621 204 578 260 621 l 419 621 b 672 547 533 621 638 583 l 672 722 b 419 649 638 686 533 649 l 374 649 b 204 574 290 649 235 628 l 204 860 b 321 1085 204 974 207 1085 l 475 1085 b 728 1004 643 1085 693 1040 l 728 1113 l 42 1113 b 100 860 78 1078 100 974 l 100 253 b 42 0 100 139 78 35 z m 254 1190 l 528 1190 l 528 1218 l 254 1218 z "},"ę":{"ha":783,"x_min":0,"x_max":0,"o":"m 42 0 l 614 0 b 578 -58 593 -11 578 -31 b 706 -137 578 -125 660 -137 l 706 -124 b 625 -62 676 -124 625 -118 b 672 -7 625 -28 638 -7 l 672 0 l 714 0 l 722 28 l 756 146 b 465 28 724 110 649 28 l 322 28 b 204 253 207 28 204 139 l 204 438 b 374 621 204 578 260 621 l 419 621 b 672 547 533 621 638 583 l 672 722 b 419 649 638 686 533 649 l 374 649 b 204 574 290 649 235 628 l 204 860 b 321 1085 204 974 207 1085 l 475 1085 b 728 1004 643 1085 693 1040 l 728 1113 l 42 1113 b 100 860 78 1078 100 974 l 100 253 b 42 0 100 139 78 35 z "},"ẽ":{"ha":783,"x_min":0,"x_max":0,"o":"m 42 0 l 714 0 l 722 28 l 756 146 b 465 28 724 110 649 28 l 322 28 b 204 253 207 28 204 139 l 204 438 b 374 621 204 578 260 621 l 419 621 b 672 547 533 621 638 583 l 672 722 b 419 649 638 686 533 649 l 374 649 b 204 574 290 649 235 628 l 204 860 b 321 1085 204 974 207 1085 l 475 1085 b 728 1004 643 1085 693 1040 l 728 1113 l 42 1113 b 100 860 78 1078 100 974 l 100 253 b 42 0 100 139 78 35 z m 221 1160 l 249 1160 b 307 1247 249 1185 249 1247 b 469 1143 386 1247 379 1143 b 561 1251 517 1143 561 1168 l 533 1251 b 468 1157 533 1176 513 1157 b 307 1261 396 1157 397 1261 b 221 1160 271 1261 221 1246 z "},"f":{"ha":756,"x_min":0,"x_max":0,"o":"m 42 0 l 263 0 b 204 253 226 35 204 139 l 204 438 b 374 621 204 578 260 621 l 379 621 b 632 547 493 621 597 583 l 632 722 b 379 649 597 686 493 649 l 364 649 b 204 574 286 647 233 625 l 204 860 b 321 1085 204 974 207 1085 l 475 1085 b 728 1004 643 1085 693 1040 l 728 1113 l 42 1113 b 100 860 78 1078 100 974 l 100 253 b 42 0 100 139 78 35 z "},"g":{"ha":863,"x_min":0,"x_max":0,"o":"m 493 -22 b 821 269 656 -22 815 31 l 821 594 l 544 594 b 714 342 658 536 714 456 l 714 283 b 526 7 714 54 633 7 b 149 557 374 7 183 133 b 429 1096 114 979 276 1096 b 690 842 531 1096 668 1028 l 801 982 b 478 1133 717 1083 600 1133 b 28 557 240 1133 28 946 b 493 -22 28 165 240 -22 z "},"ğ":{"ha":863,"x_min":0,"x_max":0,"o":"m 493 -22 b 821 269 656 -22 815 31 l 821 594 l 544 594 b 714 342 658 536 714 456 l 714 283 b 526 7 714 54 633 7 b 149 557 374 7 183 133 b 429 1096 114 979 276 1096 b 690 842 531 1096 668 1028 l 801 982 b 478 1133 717 1083 600 1133 b 28 557 240 1133 28 946 b 493 -22 28 165 240 -22 z m 363 1244 b 431 1175 363 1200 394 1175 b 500 1244 468 1175 500 1200 l 472 1244 b 431 1189 472 1210 458 1189 b 390 1244 404 1189 390 1210 z "},"ģ":{"ha":863,"x_min":0,"x_max":0,"o":"m 493 -22 b 821 269 656 -22 815 31 l 821 594 l 544 594 b 714 342 658 536 714 456 l 714 283 b 526 7 714 54 633 7 b 149 557 374 7 183 133 b 429 1096 114 979 276 1096 b 690 842 531 1096 668 1028 l 801 982 b 478 1133 717 1083 600 1133 b 28 557 240 1133 28 946 b 493 -22 28 165 240 -22 z m 397 1210 b 432 1175 397 1190 413 1175 b 467 1210 450 1175 467 1190 b 432 1244 467 1229 450 1244 l 431 1244 b 458 1269 435 1258 443 1269 l 458 1278 b 397 1210 425 1278 397 1239 z "},"ġ":{"ha":863,"x_min":0,"x_max":0,"o":"m 493 -22 b 821 269 656 -22 815 31 l 821 594 l 544 594 b 714 342 658 536 714 456 l 714 283 b 526 7 714 54 633 7 b 149 557 374 7 183 133 b 429 1096 114 979 276 1096 b 690 842 531 1096 668 1028 l 801 982 b 478 1133 717 1083 600 1133 b 28 557 240 1133 28 946 b 493 -22 28 165 240 -22 z m 397 1201 b 432 1167 397 1182 413 1167 b 467 1201 450 1167 467 1182 b 432 1236 467 1221 450 1236 b 397 1201 413 1236 397 1221 z "},"h":{"ha":897,"x_min":0,"x_max":0,"o":"m 42 0 l 263 0 b 204 253 226 35 204 139 l 204 313 b 386 494 204 453 260 492 b 693 556 526 497 626 511 l 693 253 b 635 0 693 139 671 35 l 856 0 b 797 253 819 35 797 139 l 797 860 b 856 1113 797 974 819 1078 l 635 1113 b 693 860 671 1078 693 974 l 693 836 b 381 522 693 622 651 528 b 204 446 293 521 235 499 l 204 860 b 263 1113 204 974 226 1078 l 42 1113 b 100 860 78 1078 100 974 l 100 253 b 42 0 100 139 78 35 z "},"i":{"ha":304,"x_min":0,"x_max":0,"o":"m 42 0 l 263 0 b 204 253 226 35 204 139 l 204 860 b 263 1113 204 974 226 1078 l 42 1113 b 100 860 78 1078 100 974 l 100 253 b 42 0 100 139 78 35 z "},"ı":{"ha":304,"x_min":0,"x_max":0,"o":"m 42 0 l 263 0 b 204 253 226 35 204 139 l 204 860 b 263 1113 204 974 226 1078 l 42 1113 b 100 860 78 1078 100 974 l 100 253 b 42 0 100 139 78 35 z "},"í":{"ha":304,"x_min":0,"x_max":0,"o":"m 42 0 l 263 0 b 204 253 226 35 204 139 l 204 860 b 263 1113 204 974 226 1078 l 42 1113 b 100 860 78 1078 100 974 l 100 253 b 42 0 100 139 78 35 z m 97 1246 b 111 1158 118 1213 129 1188 l 139 1158 l 201 1246 z "},"î":{"ha":304,"x_min":0,"x_max":0,"o":"m 42 0 l 263 0 b 204 253 226 35 204 139 l 204 860 b 263 1113 204 974 226 1078 l 42 1113 b 100 860 78 1078 100 974 l 100 253 b 42 0 100 139 78 35 z m 81 1157 l 113 1157 l 150 1219 l 188 1157 l 219 1157 l 167 1246 l 133 1246 z "},"ï":{"ha":304,"x_min":0,"x_max":0,"o":"m 42 0 l 263 0 b 204 253 226 35 204 139 l 204 860 b 263 1113 204 974 226 1078 l 42 1113 b 100 860 78 1078 100 974 l 100 253 b 42 0 100 139 78 35 z m 74 1201 b 108 1167 74 1182 89 1167 b 143 1201 126 1167 143 1182 b 108 1236 143 1221 126 1236 b 74 1201 89 1236 74 1221 z m 226 1201 b 261 1167 226 1182 242 1167 b 296 1201 279 1167 296 1182 b 261 1236 296 1221 279 1236 b 226 1201 242 1236 226 1221 z "},"ì":{"ha":304,"x_min":0,"x_max":0,"o":"m 42 0 l 263 0 b 204 253 226 35 204 139 l 204 860 b 263 1113 204 974 226 1078 l 42 1113 b 100 860 78 1078 100 974 l 100 253 b 42 0 100 139 78 35 z m 97 1246 l 160 1158 l 188 1158 b 201 1246 169 1188 181 1213 z "},"ĳ":{"ha":654,"x_min":0,"x_max":0,"o":"m 42 0 l 263 0 b 204 253 226 35 204 139 l 204 860 b 263 1113 204 974 226 1078 l 42 1113 b 100 860 78 1078 100 974 l 100 253 b 42 0 100 139 78 35 z m 332 0 b 568 447 565 0 568 214 l 568 451 l 568 456 l 568 860 b 626 1113 568 974 590 1078 l 406 1113 b 464 860 442 1078 464 974 l 464 456 b 332 28 464 260 464 28 z "},"ī":{"ha":304,"x_min":0,"x_max":0,"o":"m 42 0 l 263 0 b 204 253 226 35 204 139 l 204 860 b 263 1113 204 974 226 1078 l 42 1113 b 100 860 78 1078 100 974 l 100 253 b 42 0 100 139 78 35 z m 13 1190 l 286 1190 l 286 1218 l 13 1218 z "},"į":{"ha":304,"x_min":0,"x_max":0,"o":"m 42 0 l 126 0 b 90 -58 106 -11 90 -31 b 218 -137 90 -125 172 -137 l 218 -124 b 138 -62 189 -124 138 -118 b 185 -7 138 -28 150 -7 l 185 0 l 263 0 b 204 253 226 35 204 139 l 204 860 b 263 1113 204 974 226 1078 l 42 1113 b 100 860 78 1078 100 974 l 100 253 b 42 0 100 139 78 35 z m 115 1203 b 150 1168 115 1183 131 1168 b 185 1203 168 1168 185 1183 b 150 1238 185 1222 168 1238 b 115 1203 131 1238 115 1222 z "},"ĩ":{"ha":304,"x_min":0,"x_max":0,"o":"m 42 0 l 263 0 b 204 253 226 35 204 139 l 204 860 b 263 1113 204 974 226 1078 l 42 1113 b 100 860 78 1078 100 974 l 100 253 b 42 0 100 139 78 35 z m -21 1160 l 7 1160 b 65 1247 7 1185 7 1247 b 228 1143 144 1247 138 1143 b 319 1251 275 1143 319 1168 l 292 1251 b 226 1157 292 1176 271 1157 b 65 1261 154 1157 156 1261 b -21 1160 29 1261 -21 1246 z "},"j":{"ha":350,"x_min":0,"x_max":0,"o":"m 160 860 l 160 456 b 28 28 160 260 160 28 l 28 0 b 264 447 261 0 264 214 l 264 451 l 264 456 l 264 860 b 322 1113 264 974 286 1078 l 101 1113 b 160 860 138 1078 160 974 z "},"ȷ":{"ha":350,"x_min":0,"x_max":0,"o":"m 160 860 l 160 456 b 28 28 160 260 160 28 l 28 0 b 264 447 261 0 264 214 l 264 451 l 264 456 l 264 860 b 322 1113 264 974 286 1078 l 101 1113 b 160 860 138 1078 160 974 z "},"k":{"ha":890,"x_min":0,"x_max":0,"o":"m 42 0 l 263 0 b 204 253 226 35 204 139 l 204 653 b 401 560 229 599 306 560 b 647 246 556 556 622 414 b 606 0 658 135 640 35 l 826 0 b 744 253 788 38 769 124 b 513 569 711 407 640 526 l 674 869 b 863 1113 739 993 815 1081 l 624 1113 b 574 910 654 1083 624 1007 l 401 588 b 204 828 321 588 204 635 l 204 860 b 263 1113 204 974 226 1078 l 42 1113 b 100 860 78 1078 100 974 l 100 253 b 42 0 100 139 78 35 z "},"ķ":{"ha":890,"x_min":0,"x_max":0,"o":"m 42 0 l 263 0 b 204 253 226 35 204 139 l 204 653 b 401 560 229 599 306 560 b 647 246 556 556 622 414 b 606 0 658 135 640 35 l 826 0 b 744 253 788 38 769 124 b 513 569 711 407 640 526 l 674 869 b 863 1113 739 993 815 1081 l 624 1113 b 574 910 654 1083 624 1007 l 401 588 b 204 828 321 588 204 635 l 204 860 b 263 1113 204 974 226 1078 l 42 1113 b 100 860 78 1078 100 974 l 100 253 b 42 0 100 139 78 35 z m 376 -154 l 404 -154 l 514 -3 l 410 -3 b 376 -154 410 -68 408 -93 z "},"l":{"ha":797,"x_min":0,"x_max":0,"o":"m 42 0 l 728 0 l 736 28 l 769 146 b 479 28 738 110 663 28 l 322 28 b 204 253 207 28 204 139 l 204 860 b 263 1113 204 974 226 1078 l 42 1113 b 100 860 78 1078 100 974 l 100 253 b 42 0 100 139 78 35 z "},"ĺ":{"ha":797,"x_min":0,"x_max":0,"o":"m 42 0 l 728 0 l 736 28 l 769 146 b 479 28 738 110 663 28 l 322 28 b 204 253 207 28 204 139 l 204 860 b 263 1113 204 974 226 1078 l 42 1113 b 100 860 78 1078 100 974 l 100 253 b 42 0 100 139 78 35 z m 97 1239 b 111 1151 118 1206 129 1181 l 139 1151 l 201 1239 z "},"ľ":{"ha":797,"x_min":0,"x_max":0,"o":"m 42 0 l 728 0 l 736 28 l 769 146 b 479 28 738 110 663 28 l 322 28 b 204 253 207 28 204 139 l 204 860 b 263 1113 204 974 226 1078 l 42 1113 b 100 860 78 1078 100 974 l 100 253 b 42 0 100 139 78 35 z m 604 961 b 635 874 631 928 635 901 l 663 874 l 692 961 z "},"ļ":{"ha":797,"x_min":0,"x_max":0,"o":"m 42 0 l 728 0 l 736 28 l 769 146 b 479 28 738 110 663 28 l 322 28 b 204 253 207 28 204 139 l 204 860 b 263 1113 204 974 226 1078 l 42 1113 b 100 860 78 1078 100 974 l 100 253 b 42 0 100 139 78 35 z m 329 -154 l 357 -154 l 467 -3 l 363 -3 b 329 -154 363 -68 361 -93 z "},"ł":{"ha":797,"x_min":0,"x_max":0,"o":"m 42 0 l 728 0 l 736 28 l 769 146 b 479 28 738 110 663 28 l 322 28 b 204 253 207 28 204 139 l 204 603 l 329 649 l 329 678 l 204 632 l 204 860 b 263 1113 204 974 226 1078 l 42 1113 b 100 860 78 1078 100 974 l 100 594 l 56 578 l 56 549 l 100 565 l 100 253 b 42 0 100 139 78 35 z "},"m":{"ha":1078,"x_min":0,"x_max":0,"o":"m 483 0 l 660 0 b 565 126 636 22 600 67 l 874 1031 l 874 253 b 815 0 874 139 851 35 l 1036 0 b 978 253 1000 35 978 139 l 978 860 b 1036 1113 978 974 1000 1078 l 872 1113 l 547 160 b 519 222 538 181 528 201 l 296 869 b 267 1113 256 986 231 1078 l 35 1113 b 97 1033 51 1097 74 1069 l 97 253 b 39 0 97 139 75 35 l 183 0 b 125 253 147 35 125 139 l 125 988 b 179 876 144 956 163 918 z "},"n":{"ha":889,"x_min":0,"x_max":0,"o":"m 761 0 l 789 0 l 789 860 b 847 1113 789 974 811 1078 l 703 1113 b 761 860 739 1078 761 974 l 761 207 l 364 869 b 276 1113 297 982 257 1074 l 35 1113 b 136 1019 64 1100 100 1065 l 136 253 b 78 0 136 139 114 35 l 222 0 b 164 253 186 35 164 139 l 164 983 b 239 869 189 949 214 910 z "},"ń":{"ha":889,"x_min":0,"x_max":0,"o":"m 761 0 l 789 0 l 789 860 b 847 1113 789 974 811 1078 l 703 1113 b 761 860 739 1078 761 974 l 761 207 l 364 869 b 276 1113 297 982 257 1074 l 35 1113 b 136 1019 64 1100 100 1065 l 136 253 b 78 0 136 139 114 35 l 222 0 b 164 253 186 35 164 139 l 164 983 b 239 869 189 949 214 910 z m 406 1246 b 419 1158 426 1213 438 1188 l 447 1158 l 510 1246 z "},"ň":{"ha":889,"x_min":0,"x_max":0,"o":"m 761 0 l 789 0 l 789 860 b 847 1113 789 974 811 1078 l 703 1113 b 761 860 739 1078 761 974 l 761 207 l 364 869 b 276 1113 297 982 257 1074 l 35 1113 b 136 1019 64 1100 100 1065 l 136 253 b 78 0 136 139 114 35 l 222 0 b 164 253 186 35 164 139 l 164 983 b 239 869 189 949 214 910 z m 389 1246 l 442 1157 l 475 1157 l 528 1246 l 496 1246 l 458 1183 l 421 1246 z "},"ņ":{"ha":889,"x_min":0,"x_max":0,"o":"m 761 0 l 789 0 l 789 860 b 847 1113 789 974 811 1078 l 703 1113 b 761 860 739 1078 761 974 l 761 207 l 364 869 b 276 1113 297 982 257 1074 l 35 1113 b 136 1019 64 1100 100 1065 l 136 253 b 78 0 136 139 114 35 l 222 0 b 164 253 186 35 164 139 l 164 983 b 239 869 189 949 214 910 z m 375 -154 l 403 -154 l 513 -3 l 408 -3 b 375 -154 408 -68 407 -93 z "},"ñ":{"ha":889,"x_min":0,"x_max":0,"o":"m 761 0 l 789 0 l 789 860 b 847 1113 789 974 811 1078 l 703 1113 b 761 860 739 1078 761 974 l 761 207 l 364 869 b 276 1113 297 982 257 1074 l 35 1113 b 136 1019 64 1100 100 1065 l 136 253 b 78 0 136 139 114 35 l 222 0 b 164 253 186 35 164 139 l 164 983 b 239 869 189 949 214 910 z m 288 1160 l 315 1160 b 374 1247 315 1185 315 1247 b 536 1143 453 1247 446 1143 b 628 1251 583 1143 628 1168 l 600 1251 b 535 1157 600 1176 579 1157 b 374 1261 463 1157 464 1261 b 288 1160 338 1261 288 1246 z "},"o":{"ha":958,"x_min":0,"x_max":0,"o":"m 478 -22 b 931 557 715 -22 931 165 b 478 1133 931 946 715 1133 b 28 557 240 1133 28 946 b 478 -22 28 165 240 -22 z m 149 557 b 429 1096 114 979 276 1096 b 810 557 583 1096 775 979 b 526 15 844 133 681 15 b 149 557 374 15 183 133 z "},"ó":{"ha":958,"x_min":0,"x_max":0,"o":"m 478 -22 b 931 557 715 -22 931 165 b 478 1133 931 946 715 1133 b 28 557 240 1133 28 946 b 478 -22 28 165 240 -22 z m 149 557 b 429 1096 114 979 276 1096 b 810 557 583 1096 775 979 b 526 15 844 133 681 15 b 149 557 374 15 183 133 z m 426 1246 b 440 1158 447 1213 458 1188 l 468 1158 l 531 1246 z "},"ô":{"ha":958,"x_min":0,"x_max":0,"o":"m 478 -22 b 931 557 715 -22 931 165 b 478 1133 931 946 715 1133 b 28 557 240 1133 28 946 b 478 -22 28 165 240 -22 z m 149 557 b 429 1096 114 979 276 1096 b 810 557 583 1096 775 979 b 526 15 844 133 681 15 b 149 557 374 15 183 133 z m 410 1157 l 442 1157 l 479 1219 l 517 1157 l 549 1157 l 496 1246 l 463 1246 z "},"ö":{"ha":958,"x_min":0,"x_max":0,"o":"m 478 -22 b 931 557 715 -22 931 165 b 478 1133 931 946 715 1133 b 28 557 240 1133 28 946 b 478 -22 28 165 240 -22 z m 149 557 b 429 1096 114 979 276 1096 b 810 557 583 1096 775 979 b 526 15 844 133 681 15 b 149 557 374 15 183 133 z m 403 1201 b 438 1167 403 1182 418 1167 b 472 1201 456 1167 472 1182 b 438 1236 472 1221 456 1236 b 403 1201 418 1236 403 1221 z m 556 1201 b 590 1167 556 1182 571 1167 b 625 1201 608 1167 625 1182 b 590 1236 625 1221 608 1236 b 556 1201 571 1236 556 1221 z "},"ò":{"ha":958,"x_min":0,"x_max":0,"o":"m 478 -22 b 931 557 715 -22 931 165 b 478 1133 931 946 715 1133 b 28 557 240 1133 28 946 b 478 -22 28 165 240 -22 z m 149 557 b 429 1096 114 979 276 1096 b 810 557 583 1096 775 979 b 526 15 844 133 681 15 b 149 557 374 15 183 133 z m 426 1246 l 489 1158 l 517 1158 b 531 1246 499 1188 510 1213 z "},"ő":{"ha":958,"x_min":0,"x_max":0,"o":"m 478 -22 b 931 557 715 -22 931 165 b 478 1133 931 946 715 1133 b 28 557 240 1133 28 946 b 478 -22 28 165 240 -22 z m 149 557 b 429 1096 114 979 276 1096 b 810 557 583 1096 775 979 b 526 15 844 133 681 15 b 149 557 374 15 183 133 z m 365 1246 b 379 1158 386 1213 397 1188 l 407 1158 l 469 1246 z m 489 1246 b 503 1158 510 1213 521 1188 l 531 1158 l 593 1246 z "},"ō":{"ha":958,"x_min":0,"x_max":0,"o":"m 478 -22 b 931 557 715 -22 931 165 b 478 1133 931 946 715 1133 b 28 557 240 1133 28 946 b 478 -22 28 165 240 -22 z m 149 557 b 429 1096 114 979 276 1096 b 810 557 583 1096 775 979 b 526 15 844 133 681 15 b 149 557 374 15 183 133 z m 342 1190 l 615 1190 l 615 1218 l 342 1218 z "},"ø":{"ha":958,"x_min":0,"x_max":0,"o":"m 239 0 l 269 0 l 281 26 b 478 -22 342 -6 408 -22 b 931 557 715 -22 931 165 b 715 1061 931 807 842 974 l 736 1111 l 706 1111 l 690 1076 b 478 1133 626 1114 553 1133 b 28 557 240 1133 28 946 b 256 40 28 296 122 125 z m 149 557 b 429 1096 114 979 276 1096 b 656 993 503 1096 586 1069 l 293 128 b 149 557 222 211 165 346 z m 314 106 l 676 969 b 810 557 742 886 793 756 b 526 15 844 133 681 15 b 314 106 457 15 381 39 z "},"õ":{"ha":958,"x_min":0,"x_max":0,"o":"m 478 -22 b 931 557 715 -22 931 165 b 478 1133 931 946 715 1133 b 28 557 240 1133 28 946 b 478 -22 28 165 240 -22 z m 149 557 b 429 1096 114 979 276 1096 b 810 557 583 1096 775 979 b 526 15 844 133 681 15 b 149 557 374 15 183 133 z m 308 1160 l 336 1160 b 394 1247 336 1185 336 1247 b 557 1143 474 1247 467 1143 b 649 1251 604 1143 649 1168 l 621 1251 b 556 1157 621 1176 600 1157 b 394 1261 483 1157 485 1261 b 308 1160 358 1261 308 1246 z "},"œ":{"ha":1367,"x_min":0,"x_max":0,"o":"m 493 -22 b 629 0 540 -22 586 -15 l 1297 0 l 1306 28 l 1339 146 b 1049 28 1307 110 1232 28 l 906 28 b 788 253 790 28 788 139 l 788 438 b 957 621 788 578 843 621 l 1003 621 b 1256 547 1117 621 1221 583 l 1256 722 b 1003 649 1221 686 1117 649 l 957 649 b 788 574 874 649 818 628 l 788 860 b 904 1085 788 974 790 1085 l 1058 1085 b 1311 1004 1226 1085 1276 1040 l 1311 1113 l 625 1113 b 493 1133 583 1126 539 1133 b 43 557 256 1133 43 946 b 493 -22 43 165 256 -22 z m 164 557 b 444 1096 129 979 292 1096 b 672 993 519 1096 603 1069 b 683 860 679 953 683 907 l 683 253 b 649 38 683 167 671 86 b 542 15 614 22 578 15 b 164 557 389 15 199 133 z "},"p":{"ha":788,"x_min":0,"x_max":0,"o":"m 42 0 l 263 0 b 204 253 226 35 204 139 l 204 526 b 431 415 229 472 311 415 b 761 763 606 415 761 553 b 363 1133 761 1013 581 1133 b 193 1113 289 1133 258 1113 l 42 1113 b 100 860 78 1078 100 974 l 100 253 b 42 0 100 139 78 35 z m 204 701 l 204 861 b 347 1106 204 974 213 1106 b 632 804 453 1106 600 1043 b 431 443 660 594 571 443 b 204 701 326 443 204 508 z "},"þ":{"ha":788,"x_min":0,"x_max":0,"o":"m 42 0 l 263 0 b 204 253 226 35 204 139 l 204 401 b 431 290 229 347 311 290 b 761 638 606 290 761 428 b 363 1008 761 888 581 1008 b 214 989 297 1008 265 992 b 263 1113 224 1046 240 1092 l 42 1113 b 100 860 78 1078 100 974 l 100 253 b 42 0 100 139 78 35 z m 204 576 l 204 736 b 347 981 204 849 213 981 b 632 679 453 981 600 918 b 431 318 660 469 571 318 b 204 576 326 318 204 383 z "},"q":{"ha":958,"x_min":0,"x_max":0,"o":"m 478 -22 l 492 -22 l 551 -199 l 728 -199 b 600 -4 697 -169 642 -101 b 931 557 785 50 931 233 b 478 1133 931 946 715 1133 b 28 557 240 1133 28 946 b 478 -22 28 165 240 -22 z m 149 557 b 429 1096 114 979 276 1096 b 810 557 583 1096 775 979 b 589 22 840 190 721 53 l 588 25 l 575 63 b 550 306 535 179 514 271 l 321 306 b 456 81 356 272 414 192 l 476 19 b 149 557 335 43 179 178 z "},"r":{"ha":851,"x_min":0,"x_max":0,"o":"m 42 0 l 263 0 b 204 253 226 35 204 139 l 204 556 b 401 463 229 501 306 463 b 642 253 544 458 611 376 b 606 0 668 139 642 35 l 824 0 b 747 218 790 32 778 111 b 513 476 715 357 644 446 b 761 792 657 513 761 624 b 363 1133 761 999 581 1133 b 193 1113 289 1133 258 1113 l 42 1113 b 100 860 78 1078 100 974 l 100 253 b 42 0 100 139 78 35 z m 204 731 l 204 861 b 347 1106 204 974 213 1106 b 632 833 453 1106 604 1039 b 401 490 661 622 565 490 b 204 731 321 490 204 538 z "},"ŕ":{"ha":851,"x_min":0,"x_max":0,"o":"m 42 0 l 263 0 b 204 253 226 35 204 139 l 204 556 b 401 463 229 501 306 463 b 642 253 544 458 611 376 b 606 0 668 139 642 35 l 824 0 b 747 218 790 32 778 111 b 513 476 715 357 644 446 b 761 792 657 513 761 624 b 363 1133 761 999 581 1133 b 193 1113 289 1133 258 1113 l 42 1113 b 100 860 78 1078 100 974 l 100 253 b 42 0 100 139 78 35 z m 204 731 l 204 861 b 347 1106 204 974 213 1106 b 632 833 453 1106 604 1039 b 401 490 661 622 565 490 b 204 731 321 490 204 538 z m 328 1247 b 342 1160 349 1214 360 1189 l 369 1160 l 432 1247 z "},"ř":{"ha":851,"x_min":0,"x_max":0,"o":"m 42 0 l 263 0 b 204 253 226 35 204 139 l 204 556 b 401 463 229 501 306 463 b 642 253 544 458 611 376 b 606 0 668 139 642 35 l 824 0 b 747 218 790 32 778 111 b 513 476 715 357 644 446 b 761 792 657 513 761 624 b 363 1133 761 999 581 1133 b 193 1113 289 1133 258 1113 l 42 1113 b 100 860 78 1078 100 974 l 100 253 b 42 0 100 139 78 35 z m 204 731 l 204 861 b 347 1106 204 974 213 1106 b 632 833 453 1106 604 1039 b 401 490 661 622 565 490 b 204 731 321 490 204 538 z m 311 1247 l 364 1158 l 397 1158 l 450 1247 l 418 1247 l 381 1185 l 343 1247 z "},"ŗ":{"ha":851,"x_min":0,"x_max":0,"o":"m 42 0 l 263 0 b 204 253 226 35 204 139 l 204 556 b 401 463 229 501 306 463 b 642 253 544 458 611 376 b 606 0 668 139 642 35 l 824 0 b 747 218 790 32 778 111 b 513 476 715 357 644 446 b 761 792 657 513 761 624 b 363 1133 761 999 581 1133 b 193 1113 289 1133 258 1113 l 42 1113 b 100 860 78 1078 100 974 l 100 253 b 42 0 100 139 78 35 z m 204 731 l 204 861 b 347 1106 204 974 213 1106 b 632 833 453 1106 604 1039 b 401 490 661 622 565 490 b 204 731 321 490 204 538 z m 357 -154 l 385 -154 l 494 -3 l 390 -3 b 357 -154 390 -68 389 -93 z "},"s":{"ha":788,"x_min":0,"x_max":0,"o":"m 381 -22 b 760 289 586 -22 760 94 b 192 939 760 719 192 593 b 397 1106 192 1043 297 1106 b 613 922 528 1106 599 1031 l 710 1044 b 390 1133 611 1044 556 1133 b 85 897 228 1133 85 1044 b 649 271 85 510 649 593 b 400 6 649 106 524 6 b 140 329 246 6 140 139 l 28 186 b 381 -22 69 54 196 -22 z "},"ś":{"ha":788,"x_min":0,"x_max":0,"o":"m 381 -22 b 760 289 586 -22 760 94 b 192 939 760 719 192 593 b 397 1106 192 1043 297 1106 b 613 922 528 1106 599 1031 l 710 1044 b 390 1133 611 1044 556 1133 b 85 897 228 1133 85 1044 b 649 271 85 510 649 593 b 400 6 649 106 524 6 b 140 329 246 6 140 139 l 28 186 b 381 -22 69 54 196 -22 z m 342 1246 b 356 1158 363 1213 374 1188 l 383 1158 l 446 1246 z "},"š":{"ha":788,"x_min":0,"x_max":0,"o":"m 381 -22 b 760 289 586 -22 760 94 b 192 939 760 719 192 593 b 397 1106 192 1043 297 1106 b 613 922 528 1106 599 1031 l 710 1044 b 390 1133 611 1044 556 1133 b 85 897 228 1133 85 1044 b 649 271 85 510 649 593 b 400 6 649 106 524 6 b 140 329 246 6 140 139 l 28 186 b 381 -22 69 54 196 -22 z m 325 1246 l 378 1157 l 411 1157 l 464 1246 l 432 1246 l 394 1183 l 357 1246 z "},"ş":{"ha":788,"x_min":0,"x_max":0,"o":"m 381 -22 l 367 -22 l 338 -110 l 351 -110 b 411 -135 376 -100 411 -110 b 331 -168 411 -164 360 -168 l 331 -182 b 458 -121 376 -182 458 -169 b 358 -89 458 -79 396 -76 z m 28 186 b 381 -22 69 54 196 -22 b 760 289 586 -22 760 94 b 192 939 760 719 192 593 b 397 1106 192 1043 297 1106 b 613 922 528 1106 599 1031 l 710 1044 b 390 1133 611 1044 556 1133 b 85 897 228 1133 85 1044 b 649 271 85 510 649 593 b 400 6 649 106 524 6 b 140 329 246 6 140 139 z "},"ș":{"ha":788,"x_min":0,"x_max":0,"o":"m 325 -154 l 353 -154 l 451 -18 b 760 289 625 7 760 118 b 192 939 760 719 192 593 b 397 1106 192 1043 297 1106 b 613 922 528 1106 599 1031 l 710 1044 b 390 1133 611 1044 556 1133 b 85 897 228 1133 85 1044 b 649 271 85 510 649 593 b 400 6 649 106 524 6 b 140 329 246 6 140 139 l 28 186 b 358 -22 68 60 186 -15 b 325 -154 358 -74 354 -100 z "},"ß":{"ha":788,"x_min":0,"x_max":0,"o":"m 100 1042 l 100 253 b 42 0 100 139 78 35 l 204 0 l 204 861 b 342 1106 204 974 213 1106 b 571 860 403 1106 539 1099 b 396 578 599 650 481 578 b 265 610 354 578 321 581 l 265 582 b 378 550 300 561 343 550 b 651 274 476 547 625 490 b 421 6 681 28 492 6 b 283 54 381 6 328 18 l 283 -11 b 403 -22 314 -17 350 -22 b 760 253 526 -22 760 6 b 481 561 760 435 613 529 b 682 818 586 588 682 660 b 347 1133 682 1068 489 1133 b 193 1113 289 1133 258 1113 l 171 1113 b 100 1042 131 1113 100 1082 z "},"t":{"ha":999,"x_min":0,"x_max":0,"o":"m 389 0 l 610 0 b 551 253 574 35 551 139 l 551 860 b 668 1085 551 974 554 1085 l 674 1085 b 964 967 857 1085 922 1003 l 931 1085 l 922 1113 l 76 1113 l 68 1085 l 35 967 b 325 1085 76 1003 142 1085 l 331 1085 b 447 860 444 1085 447 974 l 447 253 b 389 0 447 139 425 35 z "},"ť":{"ha":999,"x_min":0,"x_max":0,"o":"m 389 0 l 610 0 b 551 253 574 35 551 139 l 551 860 b 668 1085 551 974 554 1085 l 674 1085 b 964 967 857 1085 922 1003 l 931 1085 l 922 1113 l 76 1113 l 68 1085 l 35 967 b 325 1085 76 1003 142 1085 l 331 1085 b 447 860 444 1085 447 974 l 447 253 b 389 0 447 139 425 35 z m 864 878 b 894 790 890 844 894 818 l 922 790 l 951 878 z "},"ţ":{"ha":999,"x_min":0,"x_max":0,"o":"m 389 0 l 610 0 b 551 253 574 35 551 139 l 551 860 b 668 1085 551 974 554 1085 l 674 1085 b 964 967 857 1085 922 1003 l 931 1085 l 922 1113 l 76 1113 l 68 1085 l 35 967 b 325 1085 76 1003 142 1085 l 331 1085 b 447 860 444 1085 447 974 l 447 253 b 389 0 447 139 425 35 z m 436 -167 b 564 -106 482 -167 564 -154 b 464 -74 564 -64 501 -61 l 486 -7 l 472 -7 l 443 -94 l 457 -94 b 517 -119 482 -85 517 -94 b 436 -153 517 -149 465 -153 z "},"ț":{"ha":999,"x_min":0,"x_max":0,"o":"m 389 0 l 464 0 b 431 -139 464 -57 460 -82 l 458 -139 l 558 0 l 610 0 b 551 253 574 35 551 139 l 551 860 b 668 1085 551 974 554 1085 l 674 1085 b 964 967 857 1085 922 1003 l 931 1085 l 922 1113 l 76 1113 l 68 1085 l 35 967 b 325 1085 76 1003 142 1085 l 331 1085 b 447 860 444 1085 447 974 l 447 253 b 389 0 447 139 425 35 z "},"u":{"ha":922,"x_min":0,"x_max":0,"o":"m 100 358 b 483 -22 104 97 238 -22 b 836 358 701 -22 832 53 l 836 371 l 836 860 b 894 1113 836 974 858 1078 l 750 1113 b 808 860 786 1078 808 974 l 808 371 b 483 6 808 90 710 6 b 204 371 301 6 204 121 l 204 860 b 263 1113 204 974 226 1078 l 42 1113 b 100 860 78 1078 100 974 z "},"ú":{"ha":922,"x_min":0,"x_max":0,"o":"m 100 358 b 483 -22 104 97 238 -22 b 836 358 701 -22 832 53 l 836 371 l 836 860 b 894 1113 836 974 858 1078 l 750 1113 b 808 860 786 1078 808 974 l 808 371 b 483 6 808 90 710 6 b 204 371 301 6 204 121 l 204 860 b 263 1113 204 974 226 1078 l 42 1113 b 100 860 78 1078 100 974 z m 463 1249 b 476 1161 483 1215 494 1190 l 504 1161 l 567 1249 z "},"û":{"ha":922,"x_min":0,"x_max":0,"o":"m 100 358 b 483 -22 104 97 238 -22 b 836 358 701 -22 832 53 l 836 371 l 836 860 b 894 1113 836 974 858 1078 l 750 1113 b 808 860 786 1078 808 974 l 808 371 b 483 6 808 90 710 6 b 204 371 301 6 204 121 l 204 860 b 263 1113 204 974 226 1078 l 42 1113 b 100 860 78 1078 100 974 z m 446 1160 l 478 1160 l 515 1222 l 553 1160 l 585 1160 l 532 1249 l 499 1249 z "},"ü":{"ha":922,"x_min":0,"x_max":0,"o":"m 100 358 b 483 -22 104 97 238 -22 b 836 358 701 -22 832 53 l 836 371 l 836 860 b 894 1113 836 974 858 1078 l 750 1113 b 808 860 786 1078 808 974 l 808 371 b 483 6 808 90 710 6 b 204 371 301 6 204 121 l 204 860 b 263 1113 204 974 226 1078 l 42 1113 b 100 860 78 1078 100 974 z m 439 1204 b 474 1169 439 1185 454 1169 b 508 1204 492 1169 508 1185 b 474 1239 508 1224 492 1239 b 439 1204 454 1239 439 1224 z m 592 1204 b 626 1169 592 1185 607 1169 b 661 1204 644 1169 661 1185 b 626 1239 661 1224 644 1239 b 592 1204 607 1239 592 1224 z "},"ù":{"ha":922,"x_min":0,"x_max":0,"o":"m 100 358 b 483 -22 104 97 238 -22 b 836 358 701 -22 832 53 l 836 371 l 836 860 b 894 1113 836 974 858 1078 l 750 1113 b 808 860 786 1078 808 974 l 808 371 b 483 6 808 90 710 6 b 204 371 301 6 204 121 l 204 860 b 263 1113 204 974 226 1078 l 42 1113 b 100 860 78 1078 100 974 z m 463 1249 l 525 1161 l 553 1161 b 567 1249 535 1190 546 1215 z "},"ű":{"ha":922,"x_min":0,"x_max":0,"o":"m 100 358 b 483 -22 104 97 238 -22 b 836 358 701 -22 832 53 l 836 371 l 836 860 b 894 1113 836 974 858 1078 l 750 1113 b 808 860 786 1078 808 974 l 808 371 b 483 6 808 90 710 6 b 204 371 301 6 204 121 l 204 860 b 263 1113 204 974 226 1078 l 42 1113 b 100 860 78 1078 100 974 z m 401 1249 b 415 1161 422 1215 433 1190 l 443 1161 l 506 1249 z m 525 1249 b 539 1161 546 1215 557 1190 l 567 1161 l 629 1249 z "},"ū":{"ha":922,"x_min":0,"x_max":0,"o":"m 100 358 b 483 -22 104 97 238 -22 b 836 358 701 -22 832 53 l 836 371 l 836 860 b 894 1113 836 974 858 1078 l 750 1113 b 808 860 786 1078 808 974 l 808 371 b 483 6 808 90 710 6 b 204 371 301 6 204 121 l 204 860 b 263 1113 204 974 226 1078 l 42 1113 b 100 860 78 1078 100 974 z m 378 1193 l 651 1193 l 651 1221 l 378 1221 z "},"ų":{"ha":922,"x_min":0,"x_max":0,"o":"m 100 358 b 418 -19 104 122 214 1 b 382 -78 397 -31 382 -50 b 510 -157 382 -144 464 -157 l 510 -143 b 429 -82 481 -143 429 -137 b 476 -26 429 -47 442 -26 l 476 -22 l 483 -22 b 836 358 701 -22 832 53 l 836 371 l 836 860 b 894 1113 836 974 858 1078 l 750 1113 b 808 860 786 1078 808 974 l 808 371 b 483 6 808 90 710 6 b 204 371 301 6 204 121 l 204 860 b 263 1113 204 974 226 1078 l 42 1113 b 100 860 78 1078 100 974 z "},"ů":{"ha":922,"x_min":0,"x_max":0,"o":"m 100 358 b 483 -22 104 97 238 -22 b 836 358 701 -22 832 53 l 836 371 l 836 860 b 894 1113 836 974 858 1078 l 750 1113 b 808 860 786 1078 808 974 l 808 371 b 483 6 808 90 710 6 b 204 371 301 6 204 121 l 204 860 b 263 1113 204 974 226 1078 l 42 1113 b 100 860 78 1078 100 974 z m 457 1208 b 514 1150 457 1174 483 1150 b 572 1208 546 1150 572 1174 b 514 1265 572 1242 546 1265 b 457 1208 483 1265 457 1242 z m 481 1208 b 514 1242 481 1228 496 1242 b 549 1208 533 1242 549 1228 b 514 1174 549 1188 533 1174 b 481 1208 496 1174 481 1188 z "},"ũ":{"ha":922,"x_min":0,"x_max":0,"o":"m 100 358 b 483 -22 104 97 238 -22 b 836 358 701 -22 832 53 l 836 371 l 836 860 b 894 1113 836 974 858 1078 l 750 1113 b 808 860 786 1078 808 974 l 808 371 b 483 6 808 90 710 6 b 204 371 301 6 204 121 l 204 860 b 263 1113 204 974 226 1078 l 42 1113 b 100 860 78 1078 100 974 z m 344 1163 l 372 1163 b 431 1250 372 1188 372 1250 b 593 1146 510 1250 503 1146 b 685 1254 640 1146 685 1171 l 657 1254 b 592 1160 657 1179 636 1160 b 431 1264 519 1160 521 1264 b 344 1163 394 1264 344 1249 z "},"v":{"ha":1003,"x_min":0,"x_max":0,"o":"m 492 0 l 664 0 b 582 110 643 19 613 58 l 854 869 b 1003 1113 901 993 967 1078 l 856 1113 b 838 901 888 1082 869 1003 l 564 140 b 519 235 549 169 533 201 l 289 869 b 260 1113 249 986 224 1078 l 28 1113 b 172 878 63 1079 126 990 z "},"w":{"ha":1440,"x_min":0,"x_max":0,"o":"m 492 0 l 664 0 b 582 110 643 19 613 58 l 735 535 l 929 0 l 1101 0 b 1019 110 1081 19 1050 58 l 1292 869 b 1440 1113 1339 993 1404 1078 l 1293 1113 b 1275 901 1325 1082 1307 1003 l 1001 140 b 957 235 986 169 971 201 l 790 692 l 854 869 b 1003 1113 901 993 967 1078 l 856 1113 b 838 901 888 1082 869 1003 l 776 732 l 726 869 b 697 1113 686 986 661 1078 l 465 1113 b 610 878 500 1079 564 990 l 719 575 l 564 140 b 519 235 549 169 533 201 l 289 869 b 260 1113 249 986 224 1078 l 28 1113 b 172 878 63 1079 126 990 z "},"ẃ":{"ha":1440,"x_min":0,"x_max":0,"o":"m 492 0 l 664 0 b 582 110 643 19 613 58 l 735 535 l 929 0 l 1101 0 b 1019 110 1081 19 1050 58 l 1292 869 b 1440 1113 1339 993 1404 1078 l 1293 1113 b 1275 901 1325 1082 1307 1003 l 1001 140 b 957 235 986 169 971 201 l 790 692 l 854 869 b 1003 1113 901 993 967 1078 l 856 1113 b 838 901 888 1082 869 1003 l 776 732 l 726 869 b 697 1113 686 986 661 1078 l 465 1113 b 610 878 500 1079 564 990 l 719 575 l 564 140 b 519 235 549 169 533 201 l 289 869 b 260 1113 249 986 224 1078 l 28 1113 b 172 878 63 1079 126 990 z m 710 1244 b 724 1157 731 1211 742 1186 l 751 1157 l 814 1244 z "},"ŵ":{"ha":1440,"x_min":0,"x_max":0,"o":"m 492 0 l 664 0 b 582 110 643 19 613 58 l 735 535 l 929 0 l 1101 0 b 1019 110 1081 19 1050 58 l 1292 869 b 1440 1113 1339 993 1404 1078 l 1293 1113 b 1275 901 1325 1082 1307 1003 l 1001 140 b 957 235 986 169 971 201 l 790 692 l 854 869 b 1003 1113 901 993 967 1078 l 856 1113 b 838 901 888 1082 869 1003 l 776 732 l 726 869 b 697 1113 686 986 661 1078 l 465 1113 b 610 878 500 1079 564 990 l 719 575 l 564 140 b 519 235 549 169 533 201 l 289 869 b 260 1113 249 986 224 1078 l 28 1113 b 172 878 63 1079 126 990 z m 693 1156 l 725 1156 l 763 1218 l 800 1156 l 832 1156 l 779 1244 l 746 1244 z "},"ẅ":{"ha":1440,"x_min":0,"x_max":0,"o":"m 492 0 l 664 0 b 582 110 643 19 613 58 l 735 535 l 929 0 l 1101 0 b 1019 110 1081 19 1050 58 l 1292 869 b 1440 1113 1339 993 1404 1078 l 1293 1113 b 1275 901 1325 1082 1307 1003 l 1001 140 b 957 235 986 169 971 201 l 790 692 l 854 869 b 1003 1113 901 993 967 1078 l 856 1113 b 838 901 888 1082 869 1003 l 776 732 l 726 869 b 697 1113 686 986 661 1078 l 465 1113 b 610 878 500 1079 564 990 l 719 575 l 564 140 b 519 235 549 169 533 201 l 289 869 b 260 1113 249 986 224 1078 l 28 1113 b 172 878 63 1079 126 990 z m 686 1200 b 721 1165 686 1181 701 1165 b 756 1200 739 1165 756 1181 b 721 1235 756 1219 739 1235 b 686 1200 701 1235 686 1219 z m 839 1200 b 874 1165 839 1181 854 1165 b 908 1200 892 1165 908 1181 b 874 1235 908 1219 892 1235 b 839 1200 854 1235 839 1219 z "},"ẁ":{"ha":1440,"x_min":0,"x_max":0,"o":"m 492 0 l 664 0 b 582 110 643 19 613 58 l 735 535 l 929 0 l 1101 0 b 1019 110 1081 19 1050 58 l 1292 869 b 1440 1113 1339 993 1404 1078 l 1293 1113 b 1275 901 1325 1082 1307 1003 l 1001 140 b 957 235 986 169 971 201 l 790 692 l 854 869 b 1003 1113 901 993 967 1078 l 856 1113 b 838 901 888 1082 869 1003 l 776 732 l 726 869 b 697 1113 686 986 661 1078 l 465 1113 b 610 878 500 1079 564 990 l 719 575 l 564 140 b 519 235 549 169 533 201 l 289 869 b 260 1113 249 986 224 1078 l 28 1113 b 172 878 63 1079 126 990 z m 710 1244 l 772 1157 l 800 1157 b 814 1244 782 1186 793 1211 z "},"x":{"ha":922,"x_min":0,"x_max":0,"o":"m 713 0 l 894 0 b 699 243 838 25 764 126 l 503 592 l 664 869 b 860 1113 729 986 803 1088 l 710 1113 b 638 879 729 1075 696 988 l 486 619 l 336 888 b 268 1113 281 992 250 1075 l 28 1113 b 224 869 85 1088 158 986 l 413 535 l 244 243 l 244 243 l 243 240 l 222 204 b 49 0 163 104 99 22 l 199 0 b 276 242 179 39 215 131 l 428 506 z "},"y":{"ha":993,"x_min":0,"x_max":0,"o":"m 393 0 l 614 0 b 556 253 578 35 556 139 l 556 394 l 796 872 b 972 1113 861 994 929 1082 l 824 1113 b 764 869 858 1079 821 986 l 542 428 l 317 869 b 253 1113 261 979 217 1078 l 21 1113 b 196 869 69 1082 138 985 l 451 371 l 451 253 b 393 0 451 139 429 35 z "},"ý":{"ha":993,"x_min":0,"x_max":0,"o":"m 393 0 l 614 0 b 556 253 578 35 556 139 l 556 394 l 796 872 b 972 1113 861 994 929 1082 l 824 1113 b 764 869 858 1079 821 986 l 542 428 l 317 869 b 253 1113 261 979 217 1078 l 21 1113 b 196 869 69 1082 138 985 l 451 371 l 451 253 b 393 0 451 139 429 35 z m 472 1244 b 486 1157 493 1211 504 1186 l 514 1157 l 576 1244 z "},"ŷ":{"ha":993,"x_min":0,"x_max":0,"o":"m 393 0 l 614 0 b 556 253 578 35 556 139 l 556 394 l 796 872 b 972 1113 861 994 929 1082 l 824 1113 b 764 869 858 1079 821 986 l 542 428 l 317 869 b 253 1113 261 979 217 1078 l 21 1113 b 196 869 69 1082 138 985 l 451 371 l 451 253 b 393 0 451 139 429 35 z m 456 1156 l 488 1156 l 525 1218 l 563 1156 l 594 1156 l 542 1244 l 508 1244 z "},"ÿ":{"ha":993,"x_min":0,"x_max":0,"o":"m 393 0 l 614 0 b 556 253 578 35 556 139 l 556 394 l 796 872 b 972 1113 861 994 929 1082 l 824 1113 b 764 869 858 1079 821 986 l 542 428 l 317 869 b 253 1113 261 979 217 1078 l 21 1113 b 196 869 69 1082 138 985 l 451 371 l 451 253 b 393 0 451 139 429 35 z m 449 1200 b 483 1165 449 1181 464 1165 b 518 1200 501 1165 518 1181 b 483 1235 518 1219 501 1235 b 449 1200 464 1235 449 1219 z m 601 1200 b 636 1165 601 1181 617 1165 b 671 1200 654 1165 671 1181 b 636 1235 671 1219 654 1235 b 601 1200 617 1235 601 1219 z "},"ỳ":{"ha":993,"x_min":0,"x_max":0,"o":"m 393 0 l 614 0 b 556 253 578 35 556 139 l 556 394 l 796 872 b 972 1113 861 994 929 1082 l 824 1113 b 764 869 858 1079 821 986 l 542 428 l 317 869 b 253 1113 261 979 217 1078 l 21 1113 b 196 869 69 1082 138 985 l 451 371 l 451 253 b 393 0 451 139 429 35 z m 472 1244 l 535 1157 l 563 1157 b 576 1244 544 1186 556 1211 z "},"ỹ":{"ha":993,"x_min":0,"x_max":0,"o":"m 393 0 l 614 0 b 556 253 578 35 556 139 l 556 394 l 796 872 b 972 1113 861 994 929 1082 l 824 1113 b 764 869 858 1079 821 986 l 542 428 l 317 869 b 253 1113 261 979 217 1078 l 21 1113 b 196 869 69 1082 138 985 l 451 371 l 451 253 b 393 0 451 139 429 35 z m 354 1158 l 382 1158 b 440 1246 382 1183 382 1246 b 603 1142 519 1246 513 1142 b 694 1250 650 1142 694 1167 l 667 1250 b 601 1156 667 1175 646 1156 b 440 1260 529 1156 531 1260 b 354 1158 404 1260 354 1244 z "},"z":{"ha":876,"x_min":0,"x_max":0,"o":"m 28 0 l 807 0 l 815 28 l 849 146 b 558 28 817 110 742 28 l 221 28 l 847 1111 l 119 1111 l 113 1083 l 79 965 b 369 1083 111 1001 186 1083 l 707 1083 l 221 243 b 28 0 154 126 71 28 z "},"ź":{"ha":876,"x_min":0,"x_max":0,"o":"m 28 0 l 807 0 l 815 28 l 849 146 b 558 28 817 110 742 28 l 221 28 l 847 1111 l 119 1111 l 113 1083 l 79 965 b 369 1083 111 1001 186 1083 l 707 1083 l 221 243 b 28 0 154 126 71 28 z m 386 1244 b 400 1157 407 1211 418 1186 l 428 1157 l 490 1244 z "},"ž":{"ha":876,"x_min":0,"x_max":0,"o":"m 28 0 l 807 0 l 815 28 l 849 146 b 558 28 817 110 742 28 l 221 28 l 847 1111 l 119 1111 l 113 1083 l 79 965 b 369 1083 111 1001 186 1083 l 707 1083 l 221 243 b 28 0 154 126 71 28 z m 369 1244 l 422 1156 l 456 1156 l 508 1244 l 476 1244 l 439 1182 l 401 1244 z "},"ż":{"ha":876,"x_min":0,"x_max":0,"o":"m 28 0 l 807 0 l 815 28 l 849 146 b 558 28 817 110 742 28 l 221 28 l 847 1111 l 119 1111 l 113 1083 l 79 965 b 369 1083 111 1001 186 1083 l 707 1083 l 221 243 b 28 0 154 126 71 28 z m 404 1201 b 439 1167 404 1182 419 1167 b 474 1201 457 1167 474 1182 b 439 1236 474 1221 457 1236 b 404 1201 419 1236 404 1221 z "},".":{"ha":204,"x_min":0,"x_max":0,"o":"m 103 0 b 163 61 136 0 163 28 b 103 121 163 94 136 121 b 42 61 69 121 42 94 b 103 0 42 28 69 0 z "},",":{"ha":204,"x_min":0,"x_max":0,"o":"m 103 0 b 56 -44 96 -25 83 -44 l 56 -58 b 163 61 114 -58 163 10 b 103 121 163 94 136 121 b 42 61 69 121 42 94 b 103 0 42 28 69 0 z "},":":{"ha":204,"x_min":0,"x_max":0,"o":"m 103 185 b 163 246 136 185 163 213 b 103 306 163 279 136 306 b 42 246 69 306 42 279 b 103 185 42 213 69 185 z m 42 542 b 103 481 42 508 69 481 b 163 542 136 481 163 508 b 103 601 163 575 136 601 b 42 542 69 601 42 575 z "},";":{"ha":204,"x_min":0,"x_max":0,"o":"m 103 481 b 163 542 136 481 163 508 b 103 601 163 575 136 601 b 42 542 69 601 42 575 b 103 481 42 508 69 481 z m 42 246 b 103 185 42 213 69 185 b 56 140 96 160 83 140 l 56 126 b 163 246 114 126 163 194 b 103 306 163 279 136 306 b 42 246 69 306 42 279 z "},"…":{"ha":597,"x_min":0,"x_max":0,"o":"m 294 0 b 354 61 328 0 354 28 b 294 121 354 94 328 121 b 233 61 261 121 233 94 b 294 0 233 28 261 0 z m 42 61 b 103 0 42 28 69 0 b 163 61 136 0 163 28 b 103 121 163 94 136 121 b 42 61 69 121 42 94 z m 435 61 b 496 0 435 28 463 0 b 556 61 529 0 556 28 b 496 121 556 94 529 121 b 435 61 463 121 435 94 z "},"!":{"ha":304,"x_min":0,"x_max":0,"o":"m 158 0 b 218 61 192 0 218 28 b 158 121 218 94 192 121 b 97 61 125 121 97 94 b 158 0 97 28 125 0 z m 42 1113 b 110 876 75 1081 103 978 l 139 153 l 165 153 l 194 876 b 263 1113 201 978 229 1081 z "},"¡":{"ha":304,"x_min":0,"x_max":0,"o":"m 158 992 b 218 1051 192 992 218 1018 b 158 1113 218 1085 192 1113 b 97 1051 125 1113 97 1085 b 158 992 97 1018 125 992 z m 42 0 l 263 0 b 194 236 229 32 201 135 l 165 960 l 139 960 l 110 236 b 42 0 103 135 75 32 z "},"?":{"ha":815,"x_min":0,"x_max":0,"o":"m 274 153 l 301 153 b 293 226 294 176 293 203 b 774 822 293 535 774 447 b 394 1133 774 1017 600 1133 b 42 925 210 1133 83 1057 l 176 817 b 414 1106 193 981 274 1106 b 663 840 538 1106 663 1006 b 265 228 663 574 265 615 b 274 153 265 203 268 176 z m 240 61 b 301 0 240 28 268 0 b 361 61 335 0 361 28 b 301 121 361 94 335 121 b 240 61 268 121 240 94 z "},"¿":{"ha":815,"x_min":0,"x_max":0,"o":"m 421 0 b 774 208 606 0 732 76 l 639 317 b 401 28 622 153 542 28 b 153 293 278 28 153 128 b 550 906 153 560 550 518 b 542 981 550 931 547 957 l 514 981 b 522 907 521 957 522 931 b 42 311 522 599 42 686 b 421 0 42 117 215 0 z m 454 1072 b 514 1013 454 1039 481 1013 b 575 1072 547 1013 575 1039 b 514 1133 575 1106 547 1133 b 454 1072 481 1133 454 1106 z "},"·":{"ha":204,"x_min":0,"x_max":0,"o":"m 103 342 b 163 403 136 342 163 369 b 103 463 163 436 136 463 b 42 403 69 463 42 436 b 103 342 42 369 69 342 z "},"•":{"ha":313,"x_min":0,"x_max":0,"o":"m 157 288 b 271 403 221 288 271 340 b 157 517 271 467 221 517 b 42 403 94 517 42 467 b 157 288 42 340 94 288 z "},"*":{"ha":497,"x_min":0,"x_max":0,"o":"m 88 604 l 175 549 b 251 733 193 615 218 676 b 328 549 285 676 310 615 l 415 604 b 268 757 356 650 308 700 b 456 843 326 794 389 824 l 396 929 b 264 790 358 875 315 829 b 301 979 268 854 279 917 l 197 979 b 235 790 219 917 232 853 b 101 929 183 828 140 874 l 42 843 b 232 756 110 824 174 793 b 88 604 193 699 146 650 z "},"#":{"ha":690,"x_min":0,"x_max":0,"o":"m 75 0 l 104 0 l 182 318 l 410 318 l 332 0 l 361 0 l 439 318 l 592 318 l 592 346 l 446 346 l 515 628 l 649 628 l 649 656 l 522 656 l 600 972 l 571 972 l 493 656 l 265 656 l 343 972 l 314 972 l 236 656 l 99 656 l 99 628 l 229 628 l 160 346 l 42 346 l 42 318 l 153 318 z m 189 346 l 258 628 l 486 628 l 417 346 z "},"/":{"ha":581,"x_min":0,"x_max":0,"o":"m 42 0 l 72 0 l 539 1111 l 508 1111 z "},"\\":{"ha":581,"x_min":0,"x_max":0,"o":"m 508 0 l 539 0 l 72 1111 l 42 1111 z "},"-":{"ha":524,"x_min":0,"x_max":0,"o":"m 42 435 l 482 435 l 482 463 l 42 463 z "},"–":{"ha":633,"x_min":0,"x_max":0,"o":"m 42 435 l 592 435 l 592 463 l 42 463 z "},"—":{"ha":806,"x_min":0,"x_max":0,"o":"m 42 435 l 764 435 l 764 463 l 42 463 z "},"_":{"ha":564,"x_min":0,"x_max":0,"o":"m 42 0 l 522 0 l 522 28 l 42 28 z "},"(":{"ha":525,"x_min":0,"x_max":0,"o":"m 483 -85 l 483 -57 b 169 557 288 -57 169 203 b 483 1168 169 910 288 1168 l 483 1196 b 42 557 199 1196 42 915 b 483 -85 42 197 199 -85 z "},")":{"ha":525,"x_min":0,"x_max":0,"o":"m 42 -57 l 42 -85 b 483 557 326 -85 483 197 b 42 1196 483 915 326 1196 l 42 1168 b 356 557 238 1168 356 910 b 42 -57 356 203 238 -57 z "},"{":{"ha":525,"x_min":0,"x_max":0,"o":"m 483 -82 l 483 -54 b 297 194 332 -54 297 -22 b 69 557 297 575 69 444 b 297 919 69 669 297 539 b 483 1168 297 1136 332 1168 l 483 1196 b 179 936 236 1196 179 1147 b 42 557 179 549 42 676 b 179 178 42 438 179 565 b 483 -82 179 -33 236 -82 z "},"}":{"ha":525,"x_min":0,"x_max":0,"o":"m 42 -54 l 42 -82 b 346 178 289 -82 346 -33 b 483 557 346 565 483 438 b 346 936 483 676 346 549 b 42 1196 346 1147 289 1196 l 42 1168 b 228 919 193 1168 228 1136 b 456 557 228 539 456 669 b 228 194 456 444 228 575 b 42 -54 228 -22 193 -54 z "},"[":{"ha":322,"x_min":0,"x_max":0,"o":"m 28 -60 l 281 -60 l 281 -33 l 135 -33 l 135 1146 l 281 1146 l 281 1172 l 28 1172 z "},"]":{"ha":390,"x_min":0,"x_max":0,"o":"m 28 -60 l 281 -60 l 281 1172 l 28 1172 l 28 1146 l 174 1146 l 174 -33 l 28 -33 z "},"‚":{"ha":204,"x_min":0,"x_max":0,"o":"m 103 0 b 56 -44 96 -25 83 -44 l 56 -58 b 163 61 114 -58 163 10 b 103 121 163 94 136 121 b 42 61 69 121 42 94 b 103 0 42 28 69 0 z "},"„":{"ha":204,"x_min":0,"x_max":0,"o":"m 103 0 b 56 -44 96 -25 83 -44 l 56 -58 b 163 61 114 -58 163 10 b 103 121 163 94 136 121 b 42 61 69 121 42 94 b 103 0 42 28 69 0 z "},"“":{"ha":315,"x_min":0,"x_max":0,"o":"m 169 915 l 274 915 b 236 1133 249 988 236 1060 l 207 1133 z m 42 915 l 146 915 b 108 1133 121 988 108 1060 l 79 1133 z "},"”":{"ha":315,"x_min":0,"x_max":0,"o":"m 79 915 l 108 915 l 146 1133 l 42 1133 b 79 915 67 1061 79 989 z m 169 1133 b 207 915 194 1061 207 989 l 236 915 l 274 1133 z "},"‘":{"ha":188,"x_min":0,"x_max":0,"o":"m 42 915 l 146 915 b 108 1133 121 988 108 1060 l 79 1133 z "},"’":{"ha":188,"x_min":0,"x_max":0,"o":"m 79 915 l 108 915 l 146 1133 l 42 1133 b 79 915 67 1061 79 989 z "},"«":{"ha":474,"x_min":0,"x_max":0,"o":"m 206 442 b 328 224 260 368 300 296 l 432 224 b 235 442 350 288 289 368 b 432 660 289 515 350 596 l 328 660 b 206 442 300 588 260 515 z m 42 442 b 164 224 96 368 136 296 l 268 224 b 71 442 186 288 125 368 b 268 660 125 515 186 596 l 164 660 b 42 442 136 588 96 515 z "},"»":{"ha":474,"x_min":0,"x_max":0,"o":"m 239 442 b 42 224 185 368 124 288 l 146 224 b 268 442 174 296 214 368 b 146 660 214 515 174 588 l 42 660 b 239 442 124 596 185 515 z m 206 224 l 310 224 b 432 442 338 296 378 368 b 310 660 378 515 338 588 l 206 660 b 403 442 288 596 349 515 b 206 224 349 368 288 288 z "},"‹":{"ha":310,"x_min":0,"x_max":0,"o":"m 42 442 b 164 224 96 368 136 296 l 268 224 b 71 442 186 288 125 368 b 268 660 125 515 186 596 l 164 660 b 42 442 136 588 96 515 z "},"›":{"ha":310,"x_min":0,"x_max":0,"o":"m 239 442 b 42 224 185 368 124 288 l 146 224 b 268 442 174 296 214 368 b 146 660 214 515 174 588 l 42 660 b 239 442 124 596 185 515 z "},"\"":{"ha":314,"x_min":0,"x_max":0,"o":"m 79 915 l 108 915 b 146 1133 108 989 121 1061 l 42 1133 b 79 915 67 1061 79 989 z m 168 1133 b 206 915 193 1061 206 989 l 235 915 b 272 1133 235 989 247 1061 z "},"'":{"ha":188,"x_min":0,"x_max":0,"o":"m 79 915 l 108 915 b 146 1133 108 989 121 1061 l 42 1133 b 79 915 67 1061 79 989 z "},"@":{"ha":1250,"x_min":0,"x_max":0,"o":"m 625 -46 b 838 -7 700 -46 772 -32 l 813 14 b 625 -18 754 -7 690 -18 b 56 551 317 -18 56 239 b 625 1121 56 860 317 1121 b 1194 551 938 1121 1194 860 b 1044 213 1194 411 1133 213 b 872 425 954 213 904 335 l 769 707 l 656 707 l 757 428 b 1024 104 808 297 885 104 b 1222 551 1156 104 1222 372 b 625 1149 1222 879 953 1149 b 28 551 297 1149 28 879 b 625 -46 28 224 297 -46 z m 233 321 b 400 149 233 215 297 149 b 688 493 589 149 679 278 l 593 493 b 400 176 593 292 526 176 b 260 321 317 176 260 228 b 639 942 260 540 749 699 l 532 942 b 233 321 619 724 233 540 z "},"&":{"ha":976,"x_min":0,"x_max":0,"o":"m 750 0 l 882 0 b 846 229 882 89 868 165 b 935 422 892 300 919 372 l 822 565 b 788 347 822 504 811 425 b 476 621 704 474 583 549 b 731 906 608 694 731 768 b 453 1133 731 1058 615 1133 b 147 878 290 1133 147 1038 b 263 638 147 772 194 700 b 42 289 143 567 42 469 b 411 0 42 94 181 0 b 740 111 557 0 663 47 b 750 0 747 78 750 40 z m 153 271 b 365 558 153 408 250 490 b 717 199 496 468 651 379 b 411 28 653 101 554 28 b 153 271 278 28 153 106 z m 254 919 b 453 1106 254 1033 353 1106 b 624 947 550 1106 624 1054 b 372 699 624 824 503 765 b 254 919 303 757 254 824 z "},"§":{"ha":493,"x_min":0,"x_max":0,"o":"m 18 117 b 239 -14 43 33 122 -14 b 475 181 367 -14 475 60 b 360 378 475 289 422 340 b 475 547 428 408 475 468 b 147 954 475 817 147 738 b 265 1058 147 1019 214 1058 b 383 944 331 1058 375 1011 l 444 1021 b 244 1076 382 1021 347 1076 b 53 928 143 1076 53 1021 b 229 710 53 800 144 754 b 53 561 135 704 53 650 b 378 169 53 319 378 371 b 229 4 378 67 300 4 b 88 206 154 4 88 88 z m 147 588 b 263 692 147 651 213 690 b 378 536 325 657 378 617 b 315 401 378 476 351 429 b 147 588 232 443 147 478 z "},"©":{"ha":944,"x_min":0,"x_max":0,"o":"m 478 176 b 713 308 569 176 657 219 l 697 318 b 510 219 636 238 575 219 b 289 557 436 219 311 279 b 446 910 267 833 374 910 b 581 785 497 910 560 869 l 651 874 b 478 935 601 914 540 935 b 182 557 321 935 182 811 b 478 176 182 300 321 176 z m 26 551 b 472 106 26 307 228 106 b 918 551 717 106 918 307 b 472 997 918 796 717 997 b 26 551 228 997 26 796 z m 58 551 b 472 969 58 778 246 969 b 890 551 701 969 890 778 b 472 133 890 322 701 133 b 58 551 246 133 58 322 z "},"®":{"ha":778,"x_min":0,"x_max":0,"o":"m 389 435 b 736 782 579 435 736 592 b 389 1129 736 972 579 1129 b 42 782 199 1129 42 972 b 389 435 42 592 199 435 z m 69 782 b 389 1101 69 956 215 1101 b 708 782 564 1101 708 956 b 389 463 708 607 564 463 b 69 782 215 463 69 607 z m 219 539 l 319 539 b 293 653 303 554 293 601 l 293 789 b 382 747 304 764 339 747 b 490 653 446 744 476 708 b 474 539 501 601 490 554 l 571 539 b 533 653 556 554 550 597 b 432 753 517 707 486 740 b 543 894 496 769 543 818 b 364 1049 543 988 463 1049 b 288 1039 331 1049 318 1039 l 219 1039 b 246 925 236 1024 246 976 l 246 653 b 219 539 246 601 236 554 z m 293 867 l 293 926 b 357 1036 293 976 297 1036 b 485 914 404 1036 471 1006 b 382 760 500 817 456 760 b 293 867 346 760 293 781 z "},"°":{"ha":469,"x_min":0,"x_max":0,"o":"m 235 719 b 442 926 349 719 442 813 b 235 1133 442 1040 349 1133 b 28 926 121 1133 28 1040 b 235 719 28 813 121 719 z m 57 926 b 235 1106 57 1024 138 1106 b 414 926 333 1106 414 1024 b 235 747 414 828 333 747 b 57 926 138 747 57 828 z "},"|":{"ha":111,"x_min":0,"x_max":0,"o":"m 42 -87 l 69 -87 l 69 1144 l 42 1144 z "},"†":{"ha":633,"x_min":0,"x_max":0,"o":"m 167 946 l 303 946 l 303 435 l 331 435 l 331 946 l 467 946 l 467 974 l 331 974 l 331 1110 l 303 1110 l 303 974 l 167 974 z "},"¢":{"ha":586,"x_min":0,"x_max":0,"o":"m 324 176 b 558 308 415 176 503 219 l 543 318 b 356 219 482 238 421 219 b 301 229 339 219 321 222 l 301 910 b 426 785 350 904 407 864 l 497 874 b 324 935 447 914 386 935 b 301 933 317 935 308 935 l 301 1015 l 274 1015 l 274 931 b 28 557 139 907 28 783 b 274 181 28 328 139 204 l 274 69 l 301 69 l 301 178 z m 135 557 b 274 908 114 811 203 896 l 274 243 b 135 557 213 281 150 368 z "},"¤":{"ha":601,"x_min":0,"x_max":0,"o":"m 301 379 b 413 411 342 379 381 392 b 500 275 446 369 475 325 l 574 349 b 440 433 525 372 481 400 b 508 586 482 471 508 525 b 439 740 508 647 482 701 b 574 825 479 774 524 801 l 500 899 b 411 761 475 849 446 803 b 301 793 379 782 342 793 b 190 761 261 793 222 781 b 101 899 156 803 126 849 l 28 825 b 163 739 78 801 122 772 b 94 586 121 701 94 647 b 163 433 94 526 121 471 b 28 349 122 400 78 372 l 101 275 b 190 413 126 325 156 371 b 301 379 222 392 261 379 z m 203 586 b 301 686 203 640 247 686 b 401 586 356 686 401 640 b 301 488 401 532 356 488 b 203 586 247 488 203 532 z "},"$":{"ha":788,"x_min":0,"x_max":0,"o":"m 368 -89 l 396 -89 l 396 -22 b 760 289 594 -17 760 99 b 396 683 760 544 558 604 l 396 1106 l 397 1106 b 613 922 528 1106 599 1031 l 710 1044 b 396 1133 613 1044 557 1132 l 396 1200 l 368 1200 l 368 1133 b 85 897 215 1125 85 1038 b 368 558 85 703 226 626 l 368 7 b 140 329 232 25 140 153 l 28 186 b 368 -22 68 57 190 -18 z m 192 939 b 368 1104 192 1033 278 1093 l 368 696 b 192 939 269 747 192 811 z m 396 6 l 396 546 b 649 271 526 483 649 421 b 400 6 649 106 524 6 z "},"€":{"ha":932,"x_min":0,"x_max":0,"o":"m 546 -22 b 904 178 686 -22 819 43 l 882 194 b 594 43 789 71 694 43 b 232 436 457 43 290 115 l 578 436 l 578 464 l 228 464 b 217 557 224 493 219 524 l 213 622 l 578 622 l 578 650 l 213 650 b 497 1096 207 997 357 1096 b 704 904 576 1096 671 1033 l 811 1040 b 546 1133 735 1103 642 1133 b 100 650 328 1133 132 976 l 28 650 l 28 622 l 99 622 b 96 557 97 601 96 579 b 100 464 96 525 97 493 l 28 464 l 28 436 l 103 436 b 546 -22 143 126 335 -22 z "},"£":{"ha":757,"x_min":0,"x_max":0,"o":"m 28 669 l 197 669 l 197 369 b 28 28 197 71 142 28 l 28 0 l 729 0 l 729 101 b 476 28 694 65 590 28 l 161 28 b 301 365 240 68 300 163 l 301 369 l 301 669 l 626 669 l 626 697 l 301 697 l 301 826 b 471 1010 301 967 357 1010 l 476 1010 b 729 936 590 1010 694 972 l 729 1111 b 476 1038 694 1075 590 1038 l 461 1038 b 197 828 331 1035 199 979 l 197 826 l 197 697 l 28 697 z "},"¥":{"ha":993,"x_min":0,"x_max":0,"o":"m 393 0 l 614 0 b 558 188 585 28 565 101 l 782 188 l 782 215 l 557 215 l 556 253 l 556 374 l 782 374 l 782 401 l 560 401 l 796 872 b 972 1113 861 994 929 1082 l 824 1113 b 764 869 858 1079 821 986 l 542 428 l 317 869 b 253 1113 261 979 217 1078 l 21 1113 b 196 869 69 1082 138 985 l 436 401 l 232 401 l 232 374 l 450 374 l 451 371 l 451 253 b 450 215 451 240 451 228 l 232 215 l 232 188 l 449 188 b 393 0 442 101 422 28 z "},"+":{"ha":633,"x_min":0,"x_max":0,"o":"m 42 531 l 303 531 l 303 269 l 331 269 l 331 531 l 592 531 l 592 558 l 331 558 l 331 819 l 303 819 l 303 558 l 42 558 z "},"−":{"ha":633,"x_min":0,"x_max":0,"o":"m 42 531 l 592 531 l 592 558 l 42 558 z "},"×":{"ha":492,"x_min":0,"x_max":0,"o":"m 61 340 l 246 525 l 431 340 l 450 360 l 265 544 l 450 729 l 431 749 l 246 564 l 61 749 l 42 729 l 226 544 l 42 360 z "},"÷":{"ha":633,"x_min":0,"x_max":0,"o":"m 42 531 l 592 531 l 592 558 l 42 558 z m 254 397 b 315 336 254 364 282 336 b 375 397 349 336 375 364 b 315 457 375 431 349 457 b 254 397 282 457 254 431 z m 254 693 b 315 632 254 660 282 632 b 375 693 349 632 375 660 b 315 753 375 726 349 753 b 254 693 282 753 254 726 z "},"=":{"ha":633,"x_min":0,"x_max":0,"o":"m 42 622 l 592 622 l 592 650 l 42 650 z m 42 436 l 592 436 l 592 464 l 42 464 z "},"±":{"ha":633,"x_min":0,"x_max":0,"o":"m 42 571 l 303 571 l 303 454 l 331 454 l 331 571 l 592 571 l 592 599 l 331 599 l 331 715 l 303 715 l 303 599 l 42 599 z m 42 386 l 592 386 l 592 414 l 42 414 z "},"≈":{"ha":728,"x_min":0,"x_max":0,"o":"m 529 190 b 686 367 626 190 686 257 l 576 367 b 528 204 640 265 622 204 b 213 418 393 204 365 418 b 56 232 115 418 56 347 l 165 232 b 233 319 165 286 190 319 b 529 190 375 319 376 190 z m 42 474 l 151 474 b 219 561 151 528 176 561 b 515 432 361 561 363 432 b 672 608 613 432 672 499 l 563 608 b 514 446 626 507 608 446 b 199 660 379 446 351 660 b 42 474 101 660 42 589 z "},"~":{"ha":714,"x_min":0,"x_max":0,"o":"m 515 329 b 672 506 613 329 672 396 l 563 506 b 514 343 626 404 608 343 b 199 557 379 343 351 557 b 42 371 101 557 42 486 l 151 371 b 219 458 151 425 176 458 b 515 329 361 458 363 329 z "},"^":{"ha":415,"x_min":0,"x_max":0,"o":"m 42 915 l 146 915 b 208 1104 157 978 176 1040 b 269 915 239 1040 258 978 l 374 915 b 222 1133 311 988 261 1060 l 193 1133 b 42 915 154 1060 104 988 z "},"%":{"ha":774,"x_min":0,"x_max":0,"o":"m 140 0 l 171 0 l 638 1111 l 607 1111 z m 42 844 b 194 596 42 676 104 596 b 349 844 286 596 349 676 b 194 1092 349 1011 286 1092 b 42 844 104 1092 42 1011 z m 97 844 b 179 1067 83 1018 128 1067 b 293 844 229 1067 282 1018 b 210 621 304 671 263 621 b 97 844 160 621 111 671 z m 425 244 b 578 -4 425 76 488 -4 b 732 244 669 -4 732 76 b 578 492 732 411 669 492 b 425 244 488 492 425 411 z m 481 244 b 563 467 467 418 511 467 b 676 244 613 467 665 418 b 593 21 688 71 646 21 b 481 244 543 21 494 71 z "},"‰":{"ha":1124,"x_min":0,"x_max":0,"o":"m 44 0 l 75 0 l 736 1111 l 703 1111 z m 42 844 b 194 596 42 676 104 596 b 349 844 286 596 349 676 b 194 1092 349 1011 286 1092 b 42 844 104 1092 42 1011 z m 97 844 b 179 1067 83 1018 128 1067 b 293 844 229 1067 282 1018 b 210 621 304 671 263 621 b 97 844 160 621 111 671 z m 425 244 b 578 -4 425 76 488 -4 b 732 244 669 -4 732 76 b 578 492 732 411 669 492 b 425 244 488 492 425 411 z m 481 244 b 563 467 467 418 511 467 b 676 244 613 467 665 418 b 593 21 688 71 646 21 b 481 244 543 21 494 71 z m 775 244 b 928 -4 775 76 838 -4 b 1082 244 1019 -4 1082 76 b 928 492 1082 411 1019 492 b 775 244 838 492 775 411 z m 831 244 b 913 467 817 418 861 467 b 1026 244 963 467 1015 418 b 943 21 1038 71 996 21 b 831 244 893 21 844 71 z "},"̈":{"ha":0,"x_min":0,"x_max":0,"o":"m 63 882 b 97 917 81 882 97 897 b 63 951 97 936 81 951 b 28 917 43 951 28 936 b 63 882 28 897 43 882 z m 181 917 b 215 882 181 897 196 882 b 250 917 233 882 250 897 b 215 951 250 936 233 951 b 181 917 196 951 181 936 z "},"̇":{"ha":0,"x_min":0,"x_max":0,"o":"m 63 883 b 97 918 81 883 97 899 b 63 953 97 938 81 953 b 28 918 43 953 28 938 b 63 883 28 899 43 883 z "},"̀":{"ha":0,"x_min":0,"x_max":0,"o":"m 118 874 b 132 961 100 903 111 928 l 28 961 l 90 874 z "},"́":{"ha":0,"x_min":0,"x_max":0,"o":"m 42 874 l 69 874 l 132 961 l 28 961 b 42 874 49 928 60 903 z "},"̋":{"ha":0,"x_min":0,"x_max":0,"o":"m 42 874 l 69 874 l 132 961 l 28 961 b 42 874 49 928 60 903 z m 151 961 b 165 874 172 928 183 903 l 193 874 l 256 961 z "},"̂":{"ha":0,"x_min":0,"x_max":0,"o":"m 28 872 l 60 872 l 97 935 l 135 872 l 167 872 l 114 961 l 81 961 z "},"̌":{"ha":0,"x_min":0,"x_max":0,"o":"m 81 872 l 114 872 l 167 961 l 135 961 l 97 899 l 60 961 l 28 961 z "},"̆":{"ha":0,"x_min":0,"x_max":0,"o":"m 96 892 b 165 961 133 892 165 917 l 138 961 b 96 906 138 926 124 906 b 56 961 69 906 56 926 l 28 961 b 96 892 28 917 60 892 z "},"̊":{"ha":0,"x_min":0,"x_max":0,"o":"m 85 863 b 143 921 117 863 143 886 b 85 978 143 954 117 978 b 28 921 54 978 28 954 b 85 863 28 886 54 863 z m 51 921 b 85 954 51 940 67 954 b 119 921 104 954 119 940 b 85 886 119 900 104 886 b 51 921 67 886 51 900 z "},"̃":{"ha":0,"x_min":0,"x_max":0,"o":"m 276 858 b 368 967 324 858 368 883 l 340 967 b 275 872 340 892 319 872 b 114 976 203 872 204 976 b 28 875 78 976 28 961 l 56 875 b 114 963 56 900 56 963 b 276 858 193 963 186 858 z "},"̄":{"ha":0,"x_min":0,"x_max":0,"o":"m 28 906 l 301 906 l 301 933 l 28 933 z "},"̒":{"ha":0,"x_min":0,"x_max":0,"o":"m 63 892 b 97 926 81 892 97 907 b 63 961 97 946 81 961 l 61 961 b 89 986 65 975 74 986 l 89 994 b 28 926 56 994 28 956 b 63 892 28 907 43 892 z "},"̦":{"ha":0,"x_min":0,"x_max":0,"o":"m 28 -154 l 56 -154 l 165 -3 l 61 -3 b 28 -154 61 -68 60 -93 z "},"̧":{"ha":0,"x_min":0,"x_max":0,"o":"m 35 -110 l 49 -110 b 108 -135 74 -100 108 -110 b 28 -168 108 -164 57 -168 l 28 -182 b 156 -121 74 -182 156 -169 b 56 -89 156 -79 93 -76 l 78 -22 l 64 -22 z "},"̨":{"ha":0,"x_min":0,"x_max":0,"o":"m 156 -154 l 156 -140 b 75 -79 126 -140 75 -135 b 122 -24 75 -44 88 -24 l 122 -3 b 28 -75 78 -3 28 -24 b 156 -154 28 -142 110 -154 z "}}}
